<svg xmlns="http://www.w3.org/2000/svg" xmlns:xlink="http://www.w3.org/1999/xlink" width="464" zoomAndPan="magnify" viewBox="0 0 348 331.499995" height="442" preserveAspectRatio="xMidYMid meet" version="1.0"><defs><filter x="0%" y="0%" width="100%" height="100%" id="13fd427f86"><feColorMatrix values="0 0 0 0 1 0 0 0 0 1 0 0 0 0 1 0 0 0 1 0" color-interpolation-filters="sRGB"/></filter><g/><clipPath id="44ec90892a"><path d="M 26 0.3125 L 225 0.3125 L 225 237 L 26 237 Z M 26 0.3125 " clip-rule="nonzero"/></clipPath><clipPath id="efc48b906d"><path d="M 14 12 L 198.449219 12 L 198.449219 236.597656 L 14 236.597656 Z M 14 12 " clip-rule="nonzero"/></clipPath><clipPath id="ad4b642bc3"><path d="M 62 0.3125 L 73 0.3125 L 73 11 L 62 11 Z M 62 0.3125 " clip-rule="nonzero"/></clipPath><clipPath id="8a0343b7be"><path d="M 0.0273438 39 L 4 39 L 4 43 L 0.0273438 43 Z M 0.0273438 39 " clip-rule="nonzero"/></clipPath><clipPath id="e98568f62d"><path d="M 41 71 L 198.449219 71 L 198.449219 236.597656 L 41 236.597656 Z M 41 71 " clip-rule="nonzero"/></clipPath><mask id="6e542f3502"><g filter="url(#13fd427f86)"><rect x="-201.672" width="601.344" fill="#000000" y="-124.665998" height="572.831991" fill-opacity="0.28"/></g></mask><clipPath id="0697fa5b79"><path d="M 0.246094 0.0078125 L 157.449219 0.0078125 L 157.449219 165.597656 L 0.246094 165.597656 Z M 0.246094 0.0078125 " clip-rule="nonzero"/></clipPath><clipPath id="4d8df84632"><rect x="0" width="158" y="0" height="166"/></clipPath><clipPath id="9ab10194f0"><path d="M 120 71 L 198.449219 71 L 198.449219 200 L 120 200 Z M 120 71 " clip-rule="nonzero"/></clipPath><mask id="d4f60b0434"><g filter="url(#13fd427f86)"><rect x="-201.672" width="601.344" fill="#000000" y="-124.665998" height="572.831991" fill-opacity="0.1"/></g></mask><clipPath id="6087f9f01a"><path d="M 0.0898438 0.0078125 L 78.449219 0.0078125 L 78.449219 128.691406 L 0.0898438 128.691406 Z M 0.0898438 0.0078125 " clip-rule="nonzero"/></clipPath><clipPath id="8d4e896881"><rect x="0" width="79" y="0" height="129"/></clipPath><clipPath id="3fa5455291"><path d="M 118 71 L 198.449219 71 L 198.449219 236.597656 L 118 236.597656 Z M 118 71 " clip-rule="nonzero"/></clipPath><mask id="d9ffc2c1a1"><g filter="url(#13fd427f86)"><rect x="-201.672" width="601.344" fill="#000000" y="-124.665998" height="572.831991" fill-opacity="0.5"/></g></mask><clipPath id="594bea3cdc"><path d="M 1 0.0078125 L 80.449219 0.0078125 L 80.449219 165.597656 L 1 165.597656 Z M 1 0.0078125 " clip-rule="nonzero"/></clipPath><clipPath id="bb0d89136b"><rect x="0" width="81" y="0" height="166"/></clipPath><mask id="9021a037a1"><g filter="url(#13fd427f86)"><rect x="-201.672" width="601.344" fill="#000000" y="-124.665998" height="572.831991" fill-opacity="0.21"/></g></mask><clipPath id="78fa25a81e"><path d="M 0.117188 1 L 68.652344 1 L 68.652344 79.519531 L 0.117188 79.519531 Z M 0.117188 1 " clip-rule="nonzero"/></clipPath><clipPath id="ca84f90371"><rect x="0" width="69" y="0" height="80"/></clipPath><clipPath id="4ea6dbb9c9"><path d="M 125 71 L 198.449219 71 L 198.449219 236.597656 L 125 236.597656 Z M 125 71 " clip-rule="nonzero"/></clipPath><mask id="0179bd2b52"><g filter="url(#13fd427f86)"><rect x="-201.672" width="601.344" fill="#000000" y="-124.665998" height="572.831991" fill-opacity="0.51"/></g></mask><clipPath id="8bb92ac22c"><path d="M 0.601562 0.0078125 L 73.449219 0.0078125 L 73.449219 165.597656 L 0.601562 165.597656 Z M 0.601562 0.0078125 " clip-rule="nonzero"/></clipPath><clipPath id="2fac519cb1"><rect x="0" width="74" y="0" height="166"/></clipPath><clipPath id="715c136af6"><path d="M 138 111 L 198.449219 111 L 198.449219 201 L 138 201 Z M 138 111 " clip-rule="nonzero"/></clipPath><mask id="7625e4a606"><g filter="url(#13fd427f86)"><rect x="-201.672" width="601.344" fill="#000000" y="-124.665998" height="572.831991" fill-opacity="0.42"/></g></mask><clipPath id="f349534e28"><path d="M 0.648438 0.210938 L 108.722656 0.210938 L 108.722656 122.1875 L 0.648438 122.1875 Z M 0.648438 0.210938 " clip-rule="nonzero"/></clipPath><clipPath id="22ee806aef"><rect x="0" width="109" y="0" height="123"/></clipPath><clipPath id="5de8ec46af"><rect x="0" width="199" y="0" height="237"/></clipPath><clipPath id="6c407bfca4"><path d="M 0.148438 279 L 255.84375 279 L 255.84375 321.910156 L 0.148438 321.910156 Z M 0.148438 279 " clip-rule="nonzero"/></clipPath><clipPath id="83d0bbe28e"><rect x="0" width="256" y="0" height="43"/></clipPath><clipPath id="686f8d4a63"><rect x="0" width="256" y="0" height="322"/></clipPath></defs><g transform="matrix(1, 0, 0, 1, 49, 4)"><g clip-path="url(#686f8d4a63)"><g clip-path="url(#44ec90892a)"><g transform="matrix(1, 0, 0, 1, 26, 0)"><g clip-path="url(#5de8ec46af)"><g clip-path="url(#efc48b906d)"><path fill="#00e1e2" d="M 19.863281 100.550781 L 22.675781 72.757812 C 20.347656 72.164062 18.625 70.058594 18.625 67.546875 C 18.625 64.660156 20.894531 62.3125 23.75 62.171875 L 25.3125 46.742188 C 23.9375 46.113281 23.015625 44.671875 23.15625 43.035156 C 23.304688 41.277344 24.71875 39.839844 26.464844 39.660156 C 27.394531 39.5625 28.261719 39.808594 28.957031 40.285156 C 32.765625 37.71875 40.054688 33.117188 49.601562 28.527344 C 50.339844 28.175781 51.097656 27.820312 51.878906 27.457031 C 51.621094 26.503906 51.589844 25.460938 51.972656 24.351562 C 52.6875 22.285156 54.574219 20.785156 56.761719 20.660156 C 58.867188 20.539062 60.722656 21.636719 61.710938 23.304688 C 73.828125 18.652344 88.929688 14.566406 104.859375 14.410156 C 110.125 14.363281 115.445312 14.878906 120.789062 15.945312 C 121.34375 16.054688 121.902344 16.171875 122.460938 16.292969 C 123.277344 14.355469 125.195312 12.996094 127.425781 12.996094 C 130.402344 12.996094 132.8125 15.40625 132.8125 18.382812 C 132.8125 18.671875 132.785156 18.957031 132.742188 19.230469 C 135.609375 20.238281 138.480469 21.398438 141.351562 22.722656 C 151.40625 27.359375 159.464844 33.011719 165.195312 37.714844 C 166.265625 36.929688 167.636719 36.523438 169.105469 36.71875 C 171.53125 37.039062 173.464844 39.023438 173.726562 41.457031 C 174.078125 44.699219 171.546875 47.445312 168.375 47.445312 C 166.792969 47.445312 165.378906 46.757812 164.390625 45.675781 L 157.84375 50.027344 C 161.925781 50.984375 166.109375 52.351562 170.378906 54.175781 L 126.84375 79.054688 C 124.953125 80.140625 123.34375 81.652344 122.148438 83.480469 L 105.355469 109.128906 C 104.042969 111.136719 104.09375 113.742188 105.484375 115.695312 L 114.523438 128.386719 L 108.914062 115.648438 C 108.058594 113.699219 108.332031 111.441406 109.628906 109.753906 L 125.195312 89.503906 L 125.445312 89.179688 C 127.328125 86.65625 130.011719 84.847656 133.0625 84.0625 L 145.984375 80.726562 L 181.855469 71.457031 C 181.855469 71.453125 181.859375 71.453125 181.859375 71.453125 C 181.859375 71.453125 181.859375 71.453125 181.859375 71.457031 C 181.859375 71.460938 181.859375 71.464844 181.855469 71.472656 C 179.519531 82.625 174.746094 97.148438 176.890625 105.300781 C 179.042969 113.480469 190.988281 128.558594 197.339844 136.164062 C 199.171875 138.367188 198.183594 141.726562 195.441406 142.582031 C 191.566406 143.789062 186.714844 145.382812 183.992188 146.585938 C 181.234375 147.804688 181.945312 151.15625 183.148438 153.933594 C 184.132812 156.195312 182.839844 158.804688 180.449219 159.414062 L 174.523438 160.9375 L 179.054688 164.925781 C 180.238281 165.96875 180.136719 167.878906 178.808594 168.726562 C 176.082031 170.480469 172.914062 174.515625 175.410156 183.578125 C 179.40625 198.078125 169.183594 198.023438 143.621094 199.238281 C 143.03125 199.265625 142.46875 199.3125 141.9375 199.375 C 120.03125 202.007812 143.617188 234.179688 145.164062 236.253906 L 145.234375 236.347656 C 145.238281 236.351562 145.242188 236.355469 145.246094 236.359375 C 108.375 212.679688 74.207031 203.808594 41.59375 203.5 C 41.59375 203.5 45.464844 195.683594 47.910156 185.8125 C 45.871094 185.128906 44.375 183.269531 44.242188 181.03125 C 44.058594 178.042969 46.515625 175.375 49.511719 175.320312 C 50.519531 175.296875 51.46875 175.558594 52.277344 176.023438 L 75.183594 146.96875 C 75.0625 146.839844 74.949219 146.707031 74.84375 146.566406 L 53.144531 158.558594 C 53.503906 159.511719 53.609375 160.585938 53.328125 161.71875 C 52.777344 163.945312 50.832031 165.613281 48.546875 165.792969 C 45.371094 166.050781 42.710938 163.550781 42.710938 160.425781 C 42.710938 158.460938 43.769531 156.742188 45.347656 155.804688 C 42.835938 150.027344 39.335938 142.976562 35.707031 136.019531 C 35.097656 134.847656 34.480469 133.671875 33.863281 132.511719 C 33.210938 132.683594 32.484375 132.683594 31.710938 132.335938 C 30.589844 131.832031 29.789062 130.753906 29.707031 129.527344 C 29.632812 128.445312 30.082031 127.46875 30.824219 126.816406 C 27.371094 120.417969 24.179688 114.707031 22.058594 110.949219 C 21.285156 111.25 20.429688 111.378906 19.53125 111.277344 C 16.90625 110.984375 14.839844 108.761719 14.742188 106.125 C 14.636719 103.148438 16.945312 100.695312 19.863281 100.550781 Z M 26.894531 47.082031 L 25.351562 62.332031 C 26.226562 62.558594 27.015625 62.996094 27.660156 63.589844 L 44.191406 50.316406 C 44 49.894531 43.886719 49.425781 43.886719 48.929688 C 43.886719 48.839844 43.890625 48.75 43.898438 48.660156 L 30.269531 44.867188 C 29.695312 46.164062 28.402344 47.070312 26.894531 47.082031 Z M 29.296875 68.613281 L 49.964844 76.136719 C 51.21875 73.210938 53.429688 70.796875 56.203125 69.28125 L 48.070312 52.132812 C 47.796875 52.207031 47.507812 52.25 47.207031 52.25 C 46.453125 52.25 45.761719 51.996094 45.199219 51.574219 L 28.667969 64.84375 C 29.132812 65.640625 29.402344 66.5625 29.402344 67.546875 C 29.402344 67.914062 29.363281 68.269531 29.296875 68.613281 Z M 51.058594 89.398438 L 25.160156 104.011719 C 25.375 104.582031 25.5 105.199219 25.507812 105.84375 L 43.175781 108.246094 L 48.601562 108.980469 C 49.089844 107.757812 50.285156 106.894531 51.683594 106.894531 C 51.835938 106.894531 51.980469 106.90625 52.125 106.925781 L 57.023438 94.609375 C 55.316406 93.8125 53.792969 92.691406 52.539062 91.320312 C 51.992188 90.726562 51.496094 90.082031 51.058594 89.398438 Z M 52.554688 28.964844 C 42.125 33.78125 34.175781 38.742188 30.074219 41.480469 C 30.386719 42.011719 30.570312 42.625 30.585938 43.285156 L 44.417969 47.132812 C 45.007812 46.214844 46.035156 45.609375 47.207031 45.609375 C 47.421875 45.609375 47.628906 45.632812 47.832031 45.671875 L 54.246094 30.617188 C 53.566406 30.199219 52.988281 29.632812 52.554688 28.964844 Z M 56.832031 31.414062 C 56.453125 31.398438 56.082031 31.339844 55.726562 31.25 L 49.292969 46.351562 C 50.046875 46.957031 50.527344 47.886719 50.527344 48.929688 C 50.527344 49.882812 50.121094 50.738281 49.480469 51.34375 L 57.660156 68.589844 C 58.625 68.199219 59.644531 67.910156 60.703125 67.734375 Z M 61.054688 29.65625 C 60.367188 30.414062 59.460938 30.976562 58.4375 31.242188 L 62.304688 67.566406 C 62.539062 67.554688 62.769531 67.546875 63.003906 67.546875 C 66.675781 67.546875 70.019531 68.941406 72.539062 71.230469 L 90.359375 53.707031 C 89.472656 52.746094 88.929688 51.46875 88.929688 50.0625 C 88.929688 49.472656 89.027344 48.90625 89.199219 48.375 Z M 126.40625 157.433594 C 126.054688 157.5625 125.675781 157.636719 125.277344 157.636719 C 124.488281 157.636719 123.765625 157.359375 123.195312 156.898438 L 106.8125 169.285156 C 106.9375 169.574219 107.019531 169.890625 107.054688 170.21875 L 125.496094 172.734375 C 125.9375 171.558594 127.027344 170.699219 128.335938 170.597656 C 128.457031 166.421875 127.855469 161.996094 126.40625 157.433594 Z M 121.980469 153.933594 L 84.117188 145.261719 C 83.910156 145.796875 83.617188 146.292969 83.253906 146.730469 L 102.191406 167.652344 C 102.65625 167.402344 103.191406 167.261719 103.753906 167.261719 C 104.546875 167.261719 105.269531 167.539062 105.839844 168 L 122.222656 155.613281 C 122.050781 155.214844 121.957031 154.773438 121.957031 154.316406 C 121.957031 154.183594 121.964844 154.058594 121.980469 153.933594 Z M 97.898438 202.484375 C 112.832031 200.964844 124.4375 190.917969 127.535156 177.046875 C 126.355469 176.648438 125.476562 175.605469 125.308594 174.339844 L 106.835938 171.816406 C 106.347656 173.039062 105.15625 173.90625 103.753906 173.90625 C 103.742188 173.90625 103.726562 173.902344 103.710938 173.902344 L 96.804688 199.953125 C 97.476562 200.5625 97.902344 201.4375 97.902344 202.414062 C 97.902344 202.441406 97.898438 202.460938 97.898438 202.484375 Z M 102.152344 173.492188 C 101.128906 172.925781 100.4375 171.835938 100.4375 170.582031 C 100.4375 169.898438 100.644531 169.261719 100.996094 168.734375 L 82.050781 147.800781 C 81.792969 147.96875 81.523438 148.117188 81.238281 148.238281 L 94.546875 199.097656 L 94.582031 199.097656 C 94.84375 199.097656 95.097656 199.128906 95.34375 199.1875 Z M 91.269531 202.59375 C 91.269531 202.539062 91.261719 202.476562 91.261719 202.414062 C 91.261719 201.824219 91.417969 201.273438 91.6875 200.792969 L 74.929688 178.292969 C 74.558594 178.4375 74.148438 178.523438 73.722656 178.523438 C 72.503906 178.523438 71.441406 177.863281 70.863281 176.886719 L 54.992188 180.96875 C 54.933594 182.167969 54.492188 183.261719 53.777344 184.128906 C 61.371094 191.824219 71.476562 198.703125 84.59375 201.628906 C 86.859375 202.140625 89.089844 202.457031 91.269531 202.59375 Z M 77.042969 175.199219 C 77.042969 176.023438 76.742188 176.777344 76.246094 177.355469 L 92.816406 199.609375 C 92.875 199.570312 92.929688 199.535156 92.988281 199.503906 L 79.675781 148.644531 C 79.492188 148.664062 79.304688 148.675781 79.109375 148.675781 L 79.089844 148.675781 L 75.078125 172.171875 C 76.234375 172.691406 77.042969 173.851562 77.042969 175.199219 Z M 79.109375 137.902344 C 79.769531 137.902344 80.394531 138.023438 80.976562 138.242188 L 92.902344 116.644531 C 92.28125 116.039062 91.894531 115.195312 91.894531 114.261719 C 91.894531 113.632812 92.074219 113.046875 92.378906 112.542969 L 72.398438 92.371094 C 70.957031 93.648438 69.25 94.636719 67.371094 95.242188 L 78.539062 137.929688 C 78.726562 137.914062 78.917969 137.902344 79.109375 137.902344 Z M 111.375 73.066406 L 103.25 62.832031 L 96.878906 54.800781 C 96.117188 55.214844 95.242188 55.449219 94.3125 55.449219 C 93.332031 55.449219 92.414062 55.179688 91.625 54.722656 L 73.667969 72.382812 C 73.957031 72.710938 74.230469 73.050781 74.484375 73.40625 C 75.808594 75.226562 76.710938 77.375 77.046875 79.703125 L 110.273438 76.800781 C 110.261719 76.652344 110.246094 76.503906 110.246094 76.351562 C 110.246094 75.113281 110.671875 73.976562 111.375 73.066406 Z M 110.648438 78.386719 L 77.183594 81.308594 C 77.1875 81.453125 77.195312 81.597656 77.195312 81.738281 C 77.195312 83.21875 76.96875 84.640625 76.550781 85.984375 L 87.210938 90 C 87.773438 88.976562 88.859375 88.285156 90.113281 88.285156 C 91.035156 88.285156 91.867188 88.664062 92.46875 89.269531 L 110.671875 78.457031 C 110.664062 78.433594 110.660156 78.40625 110.648438 78.386719 Z M 89.671875 94.894531 C 88.046875 94.675781 86.792969 93.289062 86.792969 91.609375 L 86.792969 91.5625 L 75.976562 87.488281 C 75.367188 88.867188 74.542969 90.132812 73.546875 91.238281 L 93.523438 111.414062 C 93.5625 111.386719 93.601562 111.359375 93.644531 111.339844 Z M 89.933594 46.929688 C 90.699219 45.863281 91.839844 45.085938 93.164062 44.796875 L 92.453125 32.074219 C 91.097656 31.8125 90.039062 30.734375 89.808594 29.367188 L 62.316406 27.25 C 62.230469 27.621094 62.105469 27.976562 61.949219 28.316406 Z M 122.070312 17.816406 C 121.796875 17.757812 121.523438 17.703125 121.25 17.644531 C 116.0625 16.570312 110.585938 15.960938 104.878906 16.023438 C 89.464844 16.175781 74.738281 20.035156 62.316406 24.828125 C 62.378906 25.089844 62.417969 25.363281 62.441406 25.644531 L 89.929688 27.761719 C 90.371094 26.445312 91.613281 25.492188 93.078125 25.492188 C 94.285156 25.492188 95.339844 26.140625 95.921875 27.109375 L 121.65625 19.296875 L 122.101562 19.160156 C 122.066406 18.902344 122.039062 18.648438 122.039062 18.382812 C 122.039062 18.191406 122.050781 18.003906 122.070312 17.816406 Z M 122.570312 20.699219 L 121.996094 20.871094 L 96.390625 28.648438 C 96.394531 28.703125 96.398438 28.757812 96.398438 28.8125 C 96.398438 30.304688 95.414062 31.566406 94.058594 31.984375 L 94.773438 44.699219 C 96.03125 44.804688 97.167969 45.34375 98.027344 46.164062 L 122.273438 22.320312 L 123.066406 21.539062 C 122.875 21.277344 122.710938 20.996094 122.570312 20.699219 Z M 132.277344 20.71875 C 131.769531 21.765625 130.941406 22.625 129.914062 23.160156 L 136.679688 42.96875 C 136.773438 42.960938 136.863281 42.953125 136.957031 42.953125 C 138.222656 42.953125 139.324219 43.664062 139.882812 44.707031 L 162.996094 41.894531 C 163.027344 40.757812 163.414062 39.714844 164.046875 38.859375 C 157.253906 33.304688 146.191406 25.609375 132.277344 20.71875 Z M 120.035156 73.25 L 163.496094 44.332031 C 163.371094 44.066406 163.269531 43.785156 163.1875 43.496094 L 140.28125 46.28125 C 140.277344 48.109375 138.789062 49.597656 136.957031 49.597656 C 136.550781 49.597656 136.160156 49.519531 135.796875 49.382812 L 119.613281 72.730469 C 119.761719 72.894531 119.90625 73.066406 120.035156 73.25 Z M 118.359375 71.710938 L 134.472656 48.46875 C 133.957031 47.886719 133.640625 47.121094 133.640625 46.277344 C 133.640625 45.105469 134.242188 44.082031 135.152344 43.488281 L 128.386719 23.679688 C 128.074219 23.734375 127.753906 23.769531 127.425781 23.769531 C 127.339844 23.769531 127.257812 23.761719 127.171875 23.753906 L 117.617188 71.347656 C 117.878906 71.449219 118.125 71.574219 118.359375 71.710938 Z M 116.050781 70.984375 L 125.589844 23.441406 C 125.085938 23.261719 124.617188 23.003906 124.199219 22.6875 L 122.582031 24.277344 L 99.023438 47.445312 C 99.453125 48.21875 99.699219 49.113281 99.699219 50.0625 C 99.699219 51.527344 99.113281 52.855469 98.164062 53.828125 L 104.660156 62.011719 L 112.542969 71.945312 C 113.417969 71.328125 114.480469 70.964844 115.636719 70.964844 C 115.773438 70.964844 115.914062 70.976562 116.050781 70.984375 Z M 112.667969 80.847656 C 112.242188 80.5625 111.855469 80.21875 111.523438 79.824219 L 93.292969 90.65625 C 93.382812 90.957031 93.433594 91.277344 93.433594 91.609375 C 93.433594 93.027344 92.539062 94.238281 91.28125 94.710938 L 95.203125 110.945312 L 95.214844 110.945312 C 95.484375 110.945312 95.746094 110.980469 96 111.042969 Z M 106.570312 129.046875 C 102.433594 125.363281 99.1875 121.371094 96.757812 117.203125 C 96.296875 117.445312 95.773438 117.585938 95.214844 117.585938 C 94.898438 117.585938 94.589844 117.535156 94.292969 117.453125 L 82.386719 139.019531 C 83.667969 140.003906 84.496094 141.546875 84.496094 143.289062 C 84.496094 143.425781 84.488281 143.558594 84.476562 143.691406 L 122.558594 152.410156 C 122.914062 151.910156 123.394531 151.511719 123.964844 151.265625 C 120.492188 143.964844 114.84375 136.425781 106.570312 129.046875 Z M 53.542969 177.027344 C 54.148438 177.671875 54.597656 178.464844 54.824219 179.347656 L 70.40625 175.335938 C 70.40625 175.292969 70.402344 175.25 70.402344 175.199219 C 70.402344 173.445312 71.765625 172.011719 73.488281 171.894531 L 77.5 148.429688 C 77.128906 148.3125 76.777344 148.15625 76.445312 147.96875 Z M 76.332031 138.679688 C 76.539062 138.554688 76.757812 138.4375 76.980469 138.339844 L 65.8125 95.652344 C 64.902344 95.832031 63.964844 95.929688 63.003906 95.929688 C 61.4375 95.929688 59.925781 95.671875 58.519531 95.203125 L 53.621094 107.523438 C 54.457031 108.125 55.003906 109.101562 55.003906 110.214844 C 55.003906 110.949219 54.761719 111.628906 54.355469 112.175781 Z M 52.367188 157.148438 L 74.0625 145.160156 C 73.84375 144.574219 73.722656 143.949219 73.722656 143.289062 C 73.722656 141.914062 74.242188 140.660156 75.09375 139.707031 L 53.117188 113.207031 C 52.871094 113.324219 52.609375 113.417969 52.335938 113.472656 L 49.292969 155.175781 C 50.535156 155.457031 51.613281 156.167969 52.367188 157.148438 Z M 36.148438 133.390625 C 40.136719 140.980469 44.082031 148.847656 46.835938 155.195312 C 47.109375 155.128906 47.394531 155.082031 47.683594 155.0625 L 50.726562 113.394531 C 50.472656 113.316406 50.234375 113.210938 50.011719 113.078125 L 37.730469 125.636719 L 35.84375 127.5625 C 36.15625 128.070312 36.339844 128.664062 36.339844 129.304688 C 36.339844 130.265625 35.925781 131.125 35.277344 131.734375 C 35.570312 132.285156 35.859375 132.839844 36.148438 133.390625 Z M 32.253906 126.074219 C 32.5 126.015625 32.753906 125.980469 33.019531 125.980469 C 33.628906 125.980469 34.203125 126.148438 34.691406 126.4375 L 38.480469 122.566406 L 48.859375 111.949219 C 48.605469 111.542969 48.441406 111.078125 48.386719 110.578125 L 42.558594 109.789062 L 25.292969 107.4375 C 24.976562 108.527344 24.324219 109.46875 23.457031 110.152344 C 25.585938 113.921875 28.785156 119.652344 32.253906 126.074219 Z M 24.363281 102.609375 L 50.265625 88 C 49.335938 86.109375 48.8125 83.988281 48.8125 81.738281 C 48.8125 80.320312 49.023438 78.945312 49.414062 77.652344 L 28.746094 70.128906 C 27.867188 71.726562 26.207031 72.824219 24.277344 72.921875 L 21.464844 100.714844 C 22.628906 101.011719 23.644531 101.6875 24.363281 102.609375 Z M 24.363281 102.609375 " fill-opacity="1" fill-rule="nonzero"/></g><path fill="#fa3aab" d="M 108.445312 45.214844 C 108.445312 45.441406 108.488281 45.660156 108.574219 45.871094 C 108.660156 46.082031 108.785156 46.265625 108.945312 46.429688 C 109.105469 46.589844 109.292969 46.714844 109.503906 46.800781 C 109.714844 46.886719 109.933594 46.929688 110.160156 46.929688 C 110.386719 46.929688 110.605469 46.886719 110.816406 46.800781 C 111.027344 46.714844 111.210938 46.589844 111.371094 46.429688 C 111.535156 46.265625 111.65625 46.082031 111.746094 45.871094 C 111.832031 45.660156 111.875 45.441406 111.875 45.214844 C 111.875 44.988281 111.832031 44.769531 111.746094 44.558594 C 111.65625 44.347656 111.535156 44.164062 111.371094 44 C 111.210938 43.839844 111.027344 43.71875 110.816406 43.628906 C 110.605469 43.542969 110.386719 43.5 110.160156 43.5 C 109.933594 43.5 109.714844 43.542969 109.503906 43.628906 C 109.292969 43.71875 109.105469 43.839844 108.945312 44 C 108.785156 44.164062 108.660156 44.347656 108.574219 44.558594 C 108.488281 44.769531 108.445312 44.988281 108.445312 45.214844 Z M 108.445312 45.214844 " fill-opacity="1" fill-rule="nonzero"/><path fill="#fa3aab" d="M 98.160156 21.085938 C 98.160156 21.339844 98.210938 21.582031 98.304688 21.816406 C 98.402344 22.050781 98.539062 22.257812 98.71875 22.4375 C 98.898438 22.617188 99.105469 22.753906 99.339844 22.851562 C 99.574219 22.945312 99.816406 22.996094 100.070312 22.996094 C 100.320312 22.996094 100.566406 22.945312 100.796875 22.851562 C 101.03125 22.753906 101.238281 22.617188 101.417969 22.4375 C 101.597656 22.257812 101.734375 22.050781 101.832031 21.816406 C 101.925781 21.582031 101.976562 21.339844 101.976562 21.085938 C 101.976562 20.835938 101.925781 20.589844 101.832031 20.359375 C 101.734375 20.125 101.597656 19.917969 101.417969 19.738281 C 101.238281 19.558594 101.03125 19.421875 100.796875 19.324219 C 100.566406 19.230469 100.320312 19.179688 100.070312 19.179688 C 99.816406 19.179688 99.574219 19.230469 99.339844 19.324219 C 99.105469 19.421875 98.898438 19.558594 98.71875 19.738281 C 98.539062 19.917969 98.402344 20.125 98.304688 20.359375 C 98.210938 20.589844 98.160156 20.835938 98.160156 21.085938 Z M 98.160156 21.085938 " fill-opacity="1" fill-rule="nonzero"/><g clip-path="url(#ad4b642bc3)"><path fill="#fa3aab" d="M 62.316406 5.617188 C 62.316406 5.960938 62.347656 6.300781 62.414062 6.632812 C 62.480469 6.96875 62.582031 7.296875 62.710938 7.613281 C 62.84375 7.925781 63.003906 8.226562 63.191406 8.511719 C 63.382812 8.796875 63.597656 9.058594 63.839844 9.300781 C 64.082031 9.542969 64.347656 9.757812 64.628906 9.949219 C 64.914062 10.140625 65.214844 10.300781 65.53125 10.429688 C 65.847656 10.5625 66.171875 10.660156 66.507812 10.726562 C 66.84375 10.792969 67.179688 10.828125 67.523438 10.828125 C 67.867188 10.828125 68.203125 10.792969 68.539062 10.726562 C 68.875 10.660156 69.199219 10.5625 69.515625 10.429688 C 69.832031 10.300781 70.132812 10.140625 70.417969 9.949219 C 70.703125 9.757812 70.964844 9.542969 71.207031 9.300781 C 71.449219 9.058594 71.664062 8.796875 71.855469 8.511719 C 72.042969 8.226562 72.203125 7.925781 72.335938 7.613281 C 72.464844 7.296875 72.566406 6.96875 72.632812 6.632812 C 72.699219 6.300781 72.730469 5.960938 72.730469 5.617188 C 72.730469 5.277344 72.699219 4.9375 72.632812 4.601562 C 72.566406 4.265625 72.464844 3.941406 72.335938 3.625 C 72.203125 3.308594 72.042969 3.007812 71.855469 2.726562 C 71.664062 2.441406 71.449219 2.175781 71.207031 1.9375 C 70.964844 1.695312 70.703125 1.476562 70.417969 1.289062 C 70.132812 1.097656 69.832031 0.9375 69.515625 0.804688 C 69.199219 0.675781 68.875 0.578125 68.539062 0.511719 C 68.203125 0.445312 67.867188 0.410156 67.523438 0.410156 C 67.179688 0.410156 66.84375 0.445312 66.507812 0.511719 C 66.171875 0.578125 65.847656 0.675781 65.53125 0.804688 C 65.214844 0.9375 64.914062 1.097656 64.628906 1.289062 C 64.347656 1.476562 64.082031 1.695312 63.839844 1.9375 C 63.597656 2.175781 63.382812 2.441406 63.191406 2.726562 C 63.003906 3.007812 62.84375 3.308594 62.710938 3.625 C 62.582031 3.941406 62.480469 4.265625 62.414062 4.601562 C 62.347656 4.9375 62.316406 5.277344 62.316406 5.617188 Z M 62.316406 5.617188 " fill-opacity="1" fill-rule="nonzero"/></g><g clip-path="url(#8a0343b7be)"><path fill="#fa3aab" d="M 0.277344 40.792969 C 0.277344 41.003906 0.316406 41.207031 0.398438 41.402344 C 0.476562 41.597656 0.59375 41.769531 0.742188 41.917969 C 0.890625 42.070312 1.0625 42.183594 1.257812 42.265625 C 1.453125 42.34375 1.65625 42.386719 1.867188 42.386719 C 2.078125 42.386719 2.28125 42.34375 2.476562 42.265625 C 2.671875 42.183594 2.84375 42.070312 2.992188 41.917969 C 3.140625 41.769531 3.257812 41.597656 3.335938 41.402344 C 3.417969 41.207031 3.457031 41.003906 3.457031 40.792969 C 3.457031 40.582031 3.417969 40.378906 3.335938 40.1875 C 3.257812 39.992188 3.140625 39.820312 2.992188 39.667969 C 2.84375 39.519531 2.671875 39.40625 2.476562 39.324219 C 2.28125 39.242188 2.078125 39.203125 1.867188 39.203125 C 1.65625 39.203125 1.453125 39.242188 1.257812 39.324219 C 1.0625 39.40625 0.890625 39.519531 0.742188 39.667969 C 0.59375 39.820312 0.476562 39.992188 0.398438 40.1875 C 0.316406 40.378906 0.277344 40.582031 0.277344 40.792969 Z M 0.277344 40.792969 " fill-opacity="1" fill-rule="nonzero"/></g><path fill="#fa3aab" d="M 8.304688 65.765625 C 8.304688 65.917969 8.335938 66.066406 8.394531 66.210938 C 8.453125 66.351562 8.535156 66.476562 8.644531 66.585938 C 8.753906 66.695312 8.878906 66.78125 9.023438 66.839844 C 9.164062 66.898438 9.3125 66.925781 9.46875 66.925781 C 9.621094 66.925781 9.769531 66.898438 9.910156 66.839844 C 10.054688 66.78125 10.179688 66.695312 10.289062 66.585938 C 10.398438 66.476562 10.480469 66.351562 10.539062 66.210938 C 10.601562 66.066406 10.628906 65.917969 10.628906 65.765625 C 10.628906 65.609375 10.601562 65.460938 10.539062 65.320312 C 10.480469 65.179688 10.398438 65.050781 10.289062 64.941406 C 10.179688 64.835938 10.054688 64.75 9.910156 64.691406 C 9.769531 64.632812 9.621094 64.601562 9.46875 64.601562 C 9.3125 64.601562 9.164062 64.632812 9.023438 64.691406 C 8.878906 64.75 8.753906 64.835938 8.644531 64.941406 C 8.535156 65.050781 8.453125 65.179688 8.394531 65.320312 C 8.335938 65.460938 8.304688 65.609375 8.304688 65.765625 Z M 8.304688 65.765625 " fill-opacity="1" fill-rule="nonzero"/><path fill="#fa3aab" d="M 32.660156 19.183594 C 32.660156 19.464844 32.714844 19.734375 32.820312 19.992188 C 32.929688 20.25 33.082031 20.476562 33.277344 20.675781 C 33.476562 20.875 33.707031 21.027344 33.964844 21.132812 C 34.222656 21.242188 34.492188 21.292969 34.773438 21.292969 C 35.050781 21.292969 35.320312 21.242188 35.578125 21.132812 C 35.839844 21.027344 36.066406 20.875 36.265625 20.675781 C 36.460938 20.476562 36.613281 20.25 36.722656 19.992188 C 36.828125 19.734375 36.882812 19.464844 36.882812 19.183594 C 36.882812 18.902344 36.828125 18.632812 36.722656 18.375 C 36.613281 18.117188 36.460938 17.886719 36.265625 17.691406 C 36.066406 17.492188 35.839844 17.339844 35.578125 17.234375 C 35.320312 17.125 35.050781 17.070312 34.773438 17.070312 C 34.492188 17.070312 34.222656 17.125 33.964844 17.234375 C 33.707031 17.339844 33.476562 17.492188 33.277344 17.691406 C 33.082031 17.886719 32.929688 18.117188 32.820312 18.375 C 32.714844 18.632812 32.660156 18.902344 32.660156 19.183594 Z M 32.660156 19.183594 " fill-opacity="1" fill-rule="nonzero"/><path fill="#fa3aab" d="M 4.871094 89.402344 C 4.871094 89.800781 4.945312 90.183594 5.097656 90.550781 C 5.25 90.921875 5.46875 91.246094 5.75 91.527344 C 6.03125 91.808594 6.359375 92.027344 6.726562 92.179688 C 7.09375 92.332031 7.476562 92.40625 7.875 92.40625 C 8.273438 92.40625 8.65625 92.332031 9.027344 92.179688 C 9.394531 92.027344 9.71875 91.808594 10 91.527344 C 10.28125 91.246094 10.5 90.921875 10.652344 90.550781 C 10.804688 90.183594 10.882812 89.800781 10.882812 89.402344 C 10.882812 89.003906 10.804688 88.621094 10.652344 88.253906 C 10.5 87.882812 10.28125 87.558594 10 87.277344 C 9.71875 86.996094 9.394531 86.777344 9.027344 86.625 C 8.65625 86.472656 8.273438 86.398438 7.875 86.398438 C 7.476562 86.398438 7.09375 86.472656 6.726562 86.625 C 6.359375 86.777344 6.03125 86.996094 5.75 87.277344 C 5.46875 87.558594 5.25 87.882812 5.097656 88.253906 C 4.945312 88.621094 4.871094 89.003906 4.871094 89.402344 Z M 4.871094 89.402344 " fill-opacity="1" fill-rule="nonzero"/><path fill="#fa3aab" d="M 23.457031 155.421875 C 23.457031 155.765625 23.523438 156.097656 23.65625 156.417969 C 23.789062 156.734375 23.976562 157.015625 24.21875 157.261719 C 24.464844 157.507812 24.746094 157.695312 25.066406 157.828125 C 25.382812 157.957031 25.714844 158.023438 26.0625 158.023438 C 26.40625 158.023438 26.738281 157.957031 27.058594 157.828125 C 27.378906 157.695312 27.660156 157.507812 27.902344 157.261719 C 28.148438 157.015625 28.335938 156.734375 28.46875 156.417969 C 28.601562 156.097656 28.667969 155.765625 28.667969 155.421875 C 28.667969 155.074219 28.601562 154.742188 28.46875 154.421875 C 28.335938 154.105469 28.148438 153.824219 27.902344 153.578125 C 27.660156 153.335938 27.378906 153.148438 27.058594 153.015625 C 26.738281 152.882812 26.40625 152.816406 26.0625 152.816406 C 25.714844 152.816406 25.382812 152.882812 25.066406 153.015625 C 24.746094 153.148438 24.464844 153.335938 24.21875 153.578125 C 23.976562 153.824219 23.789062 154.105469 23.65625 154.421875 C 23.523438 154.742188 23.457031 155.074219 23.457031 155.421875 Z M 23.457031 155.421875 " fill-opacity="1" fill-rule="nonzero"/><path fill="#fa3aab" d="M 61.949219 108.527344 C 61.949219 108.75 61.988281 108.964844 62.074219 109.167969 C 62.160156 109.375 62.28125 109.554688 62.4375 109.714844 C 62.59375 109.871094 62.777344 109.992188 62.980469 110.078125 C 63.1875 110.164062 63.402344 110.203125 63.625 110.203125 C 63.847656 110.203125 64.058594 110.164062 64.265625 110.078125 C 64.46875 109.992188 64.652344 109.871094 64.808594 109.714844 C 64.964844 109.554688 65.085938 109.375 65.171875 109.171875 C 65.257812 108.964844 65.300781 108.75 65.300781 108.527344 C 65.300781 108.304688 65.257812 108.09375 65.171875 107.886719 C 65.085938 107.679688 64.964844 107.5 64.808594 107.34375 C 64.652344 107.1875 64.46875 107.066406 64.265625 106.980469 C 64.058594 106.894531 63.847656 106.851562 63.625 106.851562 C 63.402344 106.851562 63.1875 106.894531 62.980469 106.980469 C 62.777344 107.066406 62.59375 107.1875 62.4375 107.34375 C 62.28125 107.5 62.160156 107.679688 62.074219 107.886719 C 61.988281 108.09375 61.949219 108.304688 61.949219 108.527344 Z M 61.949219 108.527344 " fill-opacity="1" fill-rule="nonzero"/><path fill="#fa3aab" d="M 56.203125 135.253906 C 56.203125 135.402344 56.230469 135.542969 56.289062 135.679688 C 56.34375 135.816406 56.425781 135.9375 56.53125 136.042969 C 56.636719 136.148438 56.757812 136.230469 56.894531 136.285156 C 57.03125 136.34375 57.171875 136.371094 57.320312 136.371094 C 57.46875 136.371094 57.609375 136.34375 57.746094 136.285156 C 57.882812 136.230469 58.003906 136.148438 58.109375 136.042969 C 58.214844 135.9375 58.296875 135.816406 58.351562 135.679688 C 58.410156 135.542969 58.4375 135.402344 58.4375 135.253906 C 58.4375 135.105469 58.410156 134.964844 58.351562 134.828125 C 58.296875 134.691406 58.214844 134.570312 58.109375 134.464844 C 58.003906 134.359375 57.882812 134.277344 57.746094 134.222656 C 57.609375 134.164062 57.46875 134.136719 57.320312 134.136719 C 57.171875 134.136719 57.03125 134.164062 56.894531 134.222656 C 56.757812 134.277344 56.636719 134.359375 56.53125 134.464844 C 56.425781 134.570312 56.34375 134.691406 56.289062 134.828125 C 56.230469 134.964844 56.203125 135.105469 56.203125 135.253906 Z M 56.203125 135.253906 " fill-opacity="1" fill-rule="nonzero"/><path fill="#fa3aab" d="M 98.160156 136.042969 C 98.160156 136.296875 98.210938 136.542969 98.304688 136.773438 C 98.402344 137.007812 98.539062 137.214844 98.71875 137.394531 C 98.898438 137.574219 99.105469 137.710938 99.339844 137.808594 C 99.574219 137.902344 99.816406 137.953125 100.070312 137.953125 C 100.320312 137.953125 100.566406 137.902344 100.796875 137.808594 C 101.03125 137.710938 101.238281 137.574219 101.417969 137.394531 C 101.597656 137.214844 101.734375 137.007812 101.832031 136.773438 C 101.925781 136.542969 101.976562 136.296875 101.976562 136.042969 C 101.976562 135.792969 101.925781 135.546875 101.832031 135.316406 C 101.734375 135.082031 101.597656 134.875 101.417969 134.695312 C 101.238281 134.515625 101.03125 134.378906 100.796875 134.28125 C 100.566406 134.1875 100.320312 134.136719 100.070312 134.136719 C 99.816406 134.136719 99.574219 134.1875 99.339844 134.28125 C 99.105469 134.378906 98.898438 134.515625 98.71875 134.695312 C 98.539062 134.875 98.402344 135.082031 98.304688 135.316406 C 98.210938 135.546875 98.160156 135.792969 98.160156 136.042969 Z M 98.160156 136.042969 " fill-opacity="1" fill-rule="nonzero"/><path fill="#fa3aab" d="M 67.371094 50.378906 C 67.371094 50.734375 67.441406 51.074219 67.574219 51.402344 C 67.710938 51.730469 67.90625 52.019531 68.15625 52.273438 C 68.40625 52.523438 68.699219 52.71875 69.027344 52.855469 C 69.355469 52.988281 69.695312 53.058594 70.050781 53.058594 C 70.40625 53.058594 70.75 52.988281 71.078125 52.855469 C 71.40625 52.71875 71.695312 52.523438 71.945312 52.273438 C 72.199219 52.019531 72.390625 51.730469 72.527344 51.402344 C 72.664062 51.074219 72.730469 50.734375 72.730469 50.378906 C 72.730469 50.023438 72.664062 49.679688 72.527344 49.351562 C 72.390625 49.023438 72.199219 48.734375 71.945312 48.484375 C 71.695312 48.230469 71.40625 48.039062 71.078125 47.902344 C 70.75 47.765625 70.40625 47.699219 70.050781 47.699219 C 69.695312 47.699219 69.355469 47.765625 69.027344 47.902344 C 68.699219 48.039062 68.40625 48.230469 68.15625 48.484375 C 67.90625 48.734375 67.710938 49.023438 67.574219 49.351562 C 67.441406 49.679688 67.371094 50.023438 67.371094 50.378906 Z M 67.371094 50.378906 " fill-opacity="1" fill-rule="nonzero"/><path fill="#fa3aab" d="M 4.613281 12.996094 C 4.613281 13.484375 4.707031 13.957031 4.894531 14.40625 C 5.082031 14.859375 5.347656 15.257812 5.695312 15.605469 C 6.042969 15.949219 6.441406 16.21875 6.894531 16.40625 C 7.34375 16.59375 7.816406 16.6875 8.304688 16.6875 C 8.792969 16.6875 9.265625 16.59375 9.71875 16.40625 C 10.167969 16.21875 10.566406 15.949219 10.914062 15.605469 C 11.261719 15.257812 11.527344 14.859375 11.714844 14.40625 C 11.902344 13.957031 11.996094 13.484375 11.996094 12.996094 C 11.996094 12.507812 11.902344 12.035156 11.714844 11.582031 C 11.527344 11.132812 11.261719 10.730469 10.914062 10.386719 C 10.566406 10.039062 10.167969 9.773438 9.71875 9.585938 C 9.265625 9.398438 8.792969 9.304688 8.304688 9.304688 C 7.816406 9.304688 7.34375 9.398438 6.894531 9.585938 C 6.441406 9.773438 6.042969 10.039062 5.695312 10.386719 C 5.347656 10.730469 5.082031 11.132812 4.894531 11.582031 C 4.707031 12.035156 4.613281 12.507812 4.613281 12.996094 Z M 4.613281 12.996094 " fill-opacity="1" fill-rule="nonzero"/><g clip-path="url(#e98568f62d)"><g mask="url(#6e542f3502)"><g transform="matrix(1, 0, 0, 1, 41, 71)"><g clip-path="url(#4d8df84632)"><g clip-path="url(#0697fa5b79)"><path fill="#fa3aab" d="M 104.164062 165.253906 C 102.617188 163.179688 79.03125 131.007812 100.9375 128.375 C 101.46875 128.3125 102.03125 128.265625 102.621094 128.238281 C 128.183594 127.023438 138.40625 127.078125 134.410156 112.578125 C 131.914062 103.515625 135.082031 99.480469 137.808594 97.726562 C 139.136719 96.878906 139.238281 94.96875 138.054688 93.925781 L 133.523438 89.9375 L 139.449219 88.414062 C 141.839844 87.804688 143.132812 85.195312 142.148438 82.933594 C 140.945312 80.15625 140.234375 76.804688 142.992188 75.585938 C 145.714844 74.382812 150.566406 72.789062 154.441406 71.582031 C 157.183594 70.726562 158.171875 67.367188 156.339844 65.164062 C 149.988281 57.558594 138.042969 42.480469 135.890625 34.300781 C 133.746094 26.148438 138.519531 11.625 140.855469 0.472656 C 140.859375 0.464844 140.859375 0.460938 140.859375 0.457031 C 140.859375 0.453125 140.859375 0.453125 140.859375 0.453125 C 140.859375 0.453125 140.855469 0.453125 140.855469 0.457031 L 104.984375 9.726562 L 92.0625 13.0625 C 89.011719 13.847656 86.328125 15.65625 84.445312 18.179688 L 84.195312 18.507812 L 68.628906 38.753906 C 67.332031 40.441406 67.058594 42.699219 67.914062 44.648438 L 73.523438 57.386719 C 73.523438 57.386719 124.066406 107.085938 87.351562 126.414062 C 50.636719 145.746094 36.75 126.988281 0.59375 132.5 C 33.207031 132.808594 67.375 141.679688 104.246094 165.359375 C 104.242188 165.355469 104.238281 165.351562 104.234375 165.347656 Z M 104.164062 165.253906 " fill-opacity="1" fill-rule="nonzero"/></g></g></g></g></g><g clip-path="url(#9ab10194f0)"><g mask="url(#d4f60b0434)"><g transform="matrix(1, 0, 0, 1, 120, 71)"><g clip-path="url(#8d4e896881)"><g clip-path="url(#6087f9f01a)"><path fill="#040053" d="M 11.257812 74.261719 C 26.8125 104.070312 25.441406 120.25 21.9375 128.375 C 22.46875 128.3125 23.03125 128.265625 23.621094 128.238281 C 49.183594 127.023438 59.40625 127.078125 55.410156 112.578125 C 52.914062 103.515625 56.082031 99.480469 58.808594 97.726562 C 60.136719 96.878906 60.238281 94.96875 59.054688 93.925781 L 54.523438 89.9375 L 60.449219 88.414062 C 62.839844 87.804688 64.132812 85.195312 63.148438 82.933594 C 61.945312 80.15625 61.234375 76.804688 63.992188 75.585938 C 66.714844 74.382812 71.566406 72.789062 75.441406 71.582031 C 78.183594 70.726562 79.171875 67.367188 77.339844 65.164062 C 70.988281 57.558594 59.042969 42.480469 56.890625 34.300781 C 54.746094 26.148438 59.519531 11.625 61.855469 0.472656 C 61.859375 0.464844 61.859375 0.460938 61.859375 0.457031 C 61.859375 0.453125 61.859375 0.453125 61.859375 0.453125 C 61.859375 0.453125 61.855469 0.453125 61.855469 0.457031 L 25.984375 9.726562 L 13.0625 13.0625 C 10.011719 13.847656 7.328125 15.65625 5.445312 18.179688 L 5.195312 18.507812 C -0.273438 28.144531 -3.679688 45.640625 11.257812 74.261719 Z M 11.257812 74.261719 " fill-opacity="1" fill-rule="nonzero"/></g></g></g></g></g><g clip-path="url(#3fa5455291)"><g mask="url(#d9ffc2c1a1)"><g transform="matrix(1, 0, 0, 1, 118, 71)"><g clip-path="url(#bb0d89136b)"><g clip-path="url(#594bea3cdc)"><path fill="#fa3aab" d="M 27.164062 165.253906 C 25.582031 163.128906 0.867188 129.421875 25.621094 128.238281 C 51.183594 127.023438 61.40625 127.078125 57.410156 112.578125 C 54.914062 103.515625 58.082031 99.480469 60.808594 97.726562 C 62.136719 96.878906 62.238281 94.96875 61.054688 93.925781 L 56.523438 89.9375 L 62.449219 88.414062 C 64.839844 87.804688 66.132812 85.195312 65.148438 82.933594 C 63.945312 80.15625 63.234375 76.804688 65.992188 75.585938 C 68.714844 74.382812 73.566406 72.789062 77.441406 71.582031 C 80.183594 70.726562 81.171875 67.367188 79.339844 65.164062 C 72.988281 57.558594 61.042969 42.480469 58.890625 34.300781 C 56.746094 26.148438 61.519531 11.625 63.855469 0.472656 C 63.859375 0.464844 63.859375 0.460938 63.859375 0.457031 C 63.859375 0.453125 63.859375 0.453125 63.859375 0.453125 C 63.859375 0.453125 63.855469 0.453125 63.855469 0.457031 L 27.984375 9.726562 L 23.316406 16.875 C 14.773438 29.960938 13.742188 46.585938 20.613281 60.625 L 28.425781 76.597656 C 37.546875 95.242188 28.496094 117.675781 8.992188 124.777344 C 0.582031 127.839844 -1.601562 138.71875 4.976562 144.785156 Z M 27.164062 165.253906 " fill-opacity="1" fill-rule="nonzero"/></g></g></g></g></g><g mask="url(#9021a037a1)"><g transform="matrix(1, 0, 0, 1, 102, 49)"><g clip-path="url(#ca84f90371)"><g clip-path="url(#78fa25a81e)"><path fill="#040053" d="M 3.484375 66.695312 C 2.09375 64.742188 2.042969 62.136719 3.355469 60.128906 L 20.148438 34.480469 C 21.34375 32.652344 22.953125 31.140625 24.84375 30.054688 L 68.378906 5.175781 C 64.109375 3.351562 59.925781 1.984375 55.84375 1.027344 L 18.457031 28.175781 C 17.363281 28.96875 16.46875 30.011719 15.84375 31.210938 L 1.535156 58.835938 C -0.140625 62.0625 0.371094 65.988281 2.8125 68.683594 L 12.523438 79.382812 Z M 3.484375 66.695312 " fill-opacity="1" fill-rule="nonzero"/></g></g></g></g><path fill="#fa3aab" d="M 105.484375 115.695312 C 104.09375 113.742188 104.042969 111.136719 105.355469 109.128906 L 122.148438 83.480469 C 123.34375 81.652344 124.953125 80.140625 126.84375 79.054688 L 170.378906 54.175781 C 166.109375 52.351562 161.925781 50.984375 157.84375 50.027344 L 120.457031 77.175781 C 119.363281 77.96875 118.46875 79.011719 117.84375 80.210938 L 103.535156 107.835938 C 101.859375 111.0625 102.371094 114.988281 104.8125 117.683594 L 114.523438 128.382812 Z M 105.484375 115.695312 " fill-opacity="1" fill-rule="nonzero"/><g clip-path="url(#4ea6dbb9c9)"><g mask="url(#0179bd2b52)"><g transform="matrix(1, 0, 0, 1, 125, 71)"><g clip-path="url(#2fac519cb1)"><g clip-path="url(#8bb92ac22c)"><path fill="#fa3aab" d="M 0.824219 138.335938 C 0.824219 141.191406 1.800781 144.082031 3.878906 146.476562 L 20.164062 165.253906 C 18.804688 163.429688 0.414062 138.351562 10.867188 130.523438 C 11.492188 130.050781 12.226562 129.644531 13.074219 129.308594 C 14.554688 128.71875 16.386719 128.347656 18.621094 128.238281 C 44.183594 127.023438 54.40625 127.078125 50.410156 112.578125 C 47.914062 103.515625 51.082031 99.480469 53.808594 97.726562 C 55.136719 96.878906 55.238281 94.96875 54.054688 93.925781 L 49.523438 89.9375 L 55.449219 88.414062 C 57.839844 87.804688 59.132812 85.195312 58.148438 82.933594 C 56.945312 80.15625 56.234375 76.804688 58.992188 75.585938 C 61.714844 74.382812 66.566406 72.789062 70.441406 71.582031 C 73.183594 70.726562 74.171875 67.367188 72.339844 65.164062 C 67.464844 59.328125 59.300781 49.09375 54.792969 40.949219 C 53.421875 38.480469 52.390625 36.207031 51.890625 34.300781 C 49.746094 26.148438 54.519531 11.625 56.855469 0.472656 C 56.859375 0.464844 56.859375 0.460938 56.859375 0.457031 C 56.855469 0.457031 56.855469 0.457031 56.855469 0.457031 L 39.789062 21.695312 C 29.449219 34.558594 25.996094 51.640625 30.527344 67.511719 L 33.734375 78.742188 C 39.5 98.933594 28.378906 120.097656 8.480469 126.808594 C 3.574219 128.859375 0.824219 133.546875 0.824219 138.335938 Z M 0.824219 138.335938 " fill-opacity="1" fill-rule="nonzero"/></g></g></g></g></g><g clip-path="url(#715c136af6)"><path fill="#fa3aab" d="M 138.074219 200.308594 C 139.554688 199.71875 141.386719 199.347656 143.621094 199.238281 C 169.183594 198.023438 179.40625 198.078125 175.410156 183.578125 C 172.914062 174.515625 176.082031 170.480469 178.808594 168.726562 C 180.136719 167.878906 180.238281 165.96875 179.054688 164.925781 L 174.523438 160.9375 L 180.449219 159.414062 C 182.839844 158.804688 184.132812 156.195312 183.148438 153.933594 C 181.945312 151.15625 181.234375 147.804688 183.992188 146.585938 C 186.714844 145.382812 191.566406 143.789062 195.441406 142.582031 C 198.183594 141.726562 199.171875 138.367188 197.339844 136.164062 C 192.464844 130.328125 184.300781 120.09375 179.792969 111.949219 C 172.765625 121.246094 168.777344 132.589844 168.546875 144.40625 L 168.304688 156.726562 C 167.972656 173.574219 158.671875 188.964844 143.914062 197.09375 Z M 138.074219 200.308594 " fill-opacity="1" fill-rule="nonzero"/></g><g mask="url(#7625e4a606)"><g transform="matrix(1, 0, 0, 1, 14, 14)"><g clip-path="url(#22ee806aef)"><g clip-path="url(#f349534e28)"><path fill="#fa3aab" d="M 5.863281 86.550781 L 8.675781 58.757812 C 6.347656 58.164062 4.625 56.058594 4.625 53.546875 C 4.625 50.660156 6.894531 48.3125 9.75 48.171875 L 11.3125 32.742188 C 9.9375 32.113281 9.015625 30.671875 9.15625 29.035156 C 9.304688 27.277344 10.71875 25.839844 12.464844 25.660156 C 13.394531 25.5625 14.261719 25.808594 14.957031 26.285156 C 18.765625 23.71875 26.054688 19.117188 35.601562 14.527344 C 36.339844 14.175781 37.097656 13.820312 37.878906 13.457031 C 37.621094 12.503906 37.589844 11.460938 37.972656 10.351562 C 38.6875 8.285156 40.574219 6.785156 42.761719 6.660156 C 44.867188 6.539062 46.722656 7.636719 47.710938 9.304688 C 59.828125 4.652344 74.929688 0.566406 90.859375 0.410156 C 96.125 0.363281 101.445312 0.878906 106.789062 1.945312 C 106.949219 2.503906 107.105469 3.070312 107.25 3.644531 C 102.0625 2.570312 96.585938 1.960938 90.878906 2.023438 C 75.464844 2.175781 60.738281 6.035156 48.316406 10.828125 C 48.378906 11.089844 48.417969 11.363281 48.441406 11.644531 L 75.929688 13.761719 C 76.371094 12.445312 77.613281 11.492188 79.078125 11.492188 C 80.285156 11.492188 81.339844 12.140625 81.921875 13.109375 L 107.65625 5.296875 C 107.777344 5.816406 107.894531 6.34375 107.996094 6.871094 L 82.390625 14.648438 C 82.394531 14.703125 82.398438 14.757812 82.398438 14.8125 C 82.398438 16.304688 81.414062 17.566406 80.058594 17.984375 L 80.773438 30.699219 C 82.03125 30.804688 83.167969 31.34375 84.027344 32.164062 L 108.273438 8.320312 C 108.390625 8.972656 108.492188 9.621094 108.582031 10.277344 L 85.023438 33.445312 C 85.453125 34.21875 85.699219 35.113281 85.699219 36.0625 C 85.699219 37.527344 85.113281 38.855469 84.164062 39.828125 L 90.660156 48.011719 C 90.199219 48.289062 89.730469 48.5625 89.25 48.832031 L 82.878906 40.800781 C 82.117188 41.214844 81.242188 41.449219 80.3125 41.449219 C 79.332031 41.449219 78.414062 41.179688 77.625 40.722656 L 59.667969 58.382812 C 59.957031 58.710938 60.230469 59.050781 60.484375 59.40625 C 51.363281 63.484375 44.175781 69.714844 38.539062 77.320312 C 37.992188 76.726562 37.496094 76.082031 37.058594 75.398438 L 11.160156 90.011719 C 11.375 90.582031 11.5 91.199219 11.507812 91.84375 L 29.175781 94.246094 C 28.96875 94.757812 28.761719 95.269531 28.558594 95.789062 L 11.292969 93.4375 C 10.976562 94.527344 10.324219 95.46875 9.457031 96.152344 C 11.585938 99.921875 14.785156 105.652344 18.253906 112.074219 C 18.5 112.015625 18.753906 111.980469 19.019531 111.980469 C 19.628906 111.980469 20.203125 112.148438 20.691406 112.4375 L 24.480469 108.566406 C 24.21875 109.585938 23.964844 110.609375 23.730469 111.636719 C 23.132812 114.199219 22.609375 116.789062 22.148438 119.390625 C 21.996094 120.265625 21.847656 121.140625 21.707031 122.019531 C 21.097656 120.847656 20.480469 119.671875 19.863281 118.511719 C 19.210938 118.683594 18.484375 118.683594 17.710938 118.335938 C 16.589844 117.832031 15.789062 116.753906 15.707031 115.527344 C 15.632812 114.445312 16.082031 113.46875 16.824219 112.816406 C 13.371094 106.417969 10.179688 100.707031 8.058594 96.949219 C 7.285156 97.25 6.429688 97.378906 5.53125 97.277344 C 2.90625 96.984375 0.839844 94.761719 0.742188 92.125 C 0.636719 89.148438 2.945312 86.695312 5.863281 86.550781 Z M 12.894531 33.082031 L 11.351562 48.332031 C 12.226562 48.558594 13.015625 48.996094 13.660156 49.589844 L 30.191406 36.316406 C 30 35.894531 29.886719 35.425781 29.886719 34.929688 C 29.886719 34.839844 29.890625 34.75 29.898438 34.660156 L 16.269531 30.867188 C 15.695312 32.164062 14.402344 33.070312 12.894531 33.082031 Z M 38.554688 14.964844 C 28.125 19.78125 20.175781 24.742188 16.074219 27.480469 C 16.386719 28.011719 16.570312 28.625 16.585938 29.285156 L 30.417969 33.132812 C 31.007812 32.214844 32.035156 31.609375 33.207031 31.609375 C 33.421875 31.609375 33.628906 31.632812 33.832031 31.671875 L 40.246094 16.617188 C 39.566406 16.199219 38.988281 15.632812 38.554688 14.964844 Z M 79.164062 30.796875 L 78.453125 18.074219 C 77.097656 17.8125 76.039062 16.734375 75.808594 15.367188 L 48.316406 13.25 C 48.230469 13.621094 48.105469 13.976562 47.949219 14.316406 L 75.933594 32.929688 C 76.699219 31.863281 77.839844 31.085938 79.164062 30.796875 Z M 49.003906 53.546875 C 52.675781 53.546875 56.019531 54.941406 58.539062 57.230469 L 76.359375 39.707031 C 75.472656 38.746094 74.929688 37.46875 74.929688 36.0625 C 74.929688 35.472656 75.027344 34.90625 75.199219 34.375 L 47.054688 15.65625 C 46.367188 16.414062 45.460938 16.976562 44.4375 17.242188 L 48.304688 53.566406 C 48.539062 53.554688 48.769531 53.546875 49.003906 53.546875 Z M 46.703125 53.734375 L 42.832031 17.414062 C 42.453125 17.398438 42.082031 17.339844 41.726562 17.25 L 35.296875 32.351562 C 36.046875 32.957031 36.527344 33.886719 36.527344 34.929688 C 36.527344 35.882812 36.121094 36.738281 35.480469 37.34375 L 43.660156 54.589844 C 44.625 54.199219 45.644531 53.910156 46.703125 53.734375 Z M 42.203125 55.28125 L 34.070312 38.132812 C 33.796875 38.207031 33.507812 38.25 33.207031 38.25 C 32.453125 38.25 31.761719 37.996094 31.199219 37.574219 L 14.667969 50.84375 C 15.132812 51.640625 15.402344 52.5625 15.402344 53.546875 C 15.402344 53.914062 15.363281 54.269531 15.296875 54.613281 L 35.964844 62.136719 C 37.21875 59.210938 39.429688 56.796875 42.203125 55.28125 Z M 10.363281 88.609375 L 36.265625 74 C 35.335938 72.109375 34.8125 69.988281 34.8125 67.738281 C 34.8125 66.320312 35.023438 64.945312 35.414062 63.652344 L 14.746094 56.128906 C 13.867188 57.726562 12.207031 58.824219 10.277344 58.921875 L 7.464844 86.714844 C 8.628906 87.011719 9.644531 87.6875 10.363281 88.609375 Z M 10.363281 88.609375 " fill-opacity="1" fill-rule="nonzero"/></g></g></g></g></g></g></g><g fill="#fa3aab" fill-opacity="1"><g transform="translate(0.730096, 277.313807)"><g><path d="M 2.625 -27.859375 L 10.734375 -27.859375 L 10.734375 0 L 2.625 0 Z M 12.4375 -6.203125 L 12.75 -6.203125 C 14.070312 -6.203125 15.007812 -6.257812 15.5625 -6.375 C 16.125 -6.5 16.539062 -6.789062 16.8125 -7.25 C 17.101562 -7.738281 17.265625 -8.507812 17.296875 -9.5625 C 17.347656 -10.90625 17.375 -12.363281 17.375 -13.9375 C 17.375 -15.46875 17.347656 -16.9375 17.296875 -18.34375 C 17.242188 -19.394531 17.070312 -20.164062 16.78125 -20.65625 C 16.5 -21.144531 16.050781 -21.441406 15.4375 -21.546875 C 14.8125 -21.628906 13.914062 -21.671875 12.75 -21.671875 L 12.4375 -21.671875 L 12.4375 -27.859375 L 12.75 -27.859375 C 14.914062 -27.859375 16.71875 -27.765625 18.15625 -27.578125 C 19.601562 -27.390625 20.800781 -27.09375 21.75 -26.6875 C 22.664062 -26.28125 23.394531 -25.722656 23.9375 -25.015625 C 24.476562 -24.316406 24.867188 -23.441406 25.109375 -22.390625 C 25.328125 -21.453125 25.46875 -20.335938 25.53125 -19.046875 C 25.601562 -17.765625 25.640625 -16.0625 25.640625 -13.9375 C 25.640625 -11.769531 25.601562 -10.050781 25.53125 -8.78125 C 25.46875 -7.519531 25.328125 -6.414062 25.109375 -5.46875 C 24.867188 -4.414062 24.476562 -3.535156 23.9375 -2.828125 C 23.394531 -2.128906 22.664062 -1.578125 21.75 -1.171875 C 20.800781 -0.765625 19.601562 -0.46875 18.15625 -0.28125 C 16.71875 -0.09375 14.914062 0 12.75 0 L 12.4375 0 Z M 12.4375 -6.203125 "/></g></g></g><g fill="#fa3aab" fill-opacity="1"><g transform="translate(32.324662, 277.313807)"><g><path d="M 2.625 -27.859375 L 10.734375 -27.859375 L 10.734375 0 L 2.625 0 Z M 12.4375 -27.859375 L 22.71875 -27.859375 L 22.71875 -21.671875 L 12.4375 -21.671875 Z M 12.4375 -17.171875 L 20.8125 -17.171875 L 20.8125 -10.96875 L 12.4375 -10.96875 Z M 12.4375 -6.203125 L 22.71875 -6.203125 L 22.71875 0 L 12.4375 0 Z M 12.4375 -6.203125 "/></g></g></g><g fill="#fa3aab" fill-opacity="1"><g transform="translate(61.326908, 277.313807)"><g><path d="M 8.09375 -1.171875 C 7.75 -2.253906 7.441406 -3.304688 7.171875 -4.328125 L 5.875 -8.78125 C 5.4375 -10.238281 5.097656 -11.332031 4.859375 -12.0625 C 4.640625 -12.875 4.460938 -13.484375 4.328125 -13.890625 L 0.203125 -27.859375 L 8.46875 -27.859375 L 16.03125 0 L 8.46875 0 Z M 14.453125 -12.359375 L 18.546875 -27.859375 L 26.65625 -27.859375 L 22.515625 -13.890625 L 21.015625 -8.78125 C 20.535156 -7.21875 20.09375 -5.734375 19.6875 -4.328125 C 19.414062 -3.304688 19.101562 -2.253906 18.75 -1.171875 L 18.390625 0 L 17.8125 0 Z M 14.453125 -12.359375 "/></g></g></g><g fill="#fa3aab" fill-opacity="1"><g transform="translate(92.232892, 277.313807)"><g><path d="M 2.625 -27.859375 L 10.734375 -27.859375 L 10.734375 0 L 2.625 0 Z M 2.625 -27.859375 "/></g></g></g><g fill="#fa3aab" fill-opacity="1"><g transform="translate(109.650716, 277.313807)"><g><path d="M 2.625 -27.859375 L 10.734375 -27.859375 L 10.734375 0 L 2.625 0 Z M 12.4375 -27.859375 L 21.90625 -27.859375 L 21.90625 -21.671875 L 12.4375 -21.671875 Z M 12.4375 -16.359375 L 20.40625 -16.359375 L 20.40625 -10.171875 L 12.4375 -10.171875 Z M 12.4375 -16.359375 "/></g></g></g><g fill="#fa3aab" fill-opacity="1"><g transform="translate(137.032765, 277.313807)"><g><path d="M 8.75 -9.1875 L 8.390625 -10 L 7.328125 -12.0625 L 6.3125 -14.21875 C 6.207031 -14.40625 6.070312 -14.6875 5.90625 -15.0625 L 4.25 -18.515625 L -0.203125 -27.859375 L 8.0625 -27.859375 L 16.84375 -9.15625 L 16.84375 0 L 8.75 0 Z M 13.96875 -19.234375 L 17.734375 -27.859375 L 25.84375 -27.859375 L 22.6875 -21.296875 L 21.34375 -18.546875 L 18.796875 -13.25 L 17.78125 -11.140625 Z M 13.96875 -19.234375 "/></g></g></g><g fill="#fa3aab" fill-opacity="1"><g transform="translate(166.723613, 277.313807)"><g><path d="M 2.59375 -6.59375 L 10.765625 -6.59375 L 10.765625 0 L 2.59375 0 Z M 2.59375 -6.59375 "/></g></g></g><g fill="#fa3aab" fill-opacity="1"><g transform="translate(184.141437, 277.313807)"><g><path d="M 2.625 -26.65625 L 2.625 -27.859375 L 10.078125 -27.859375 L 21.75 -3.078125 L 20.40625 0 L 15.140625 0 Z M 25.515625 -11.703125 L 25.359375 -11.703125 L 22.640625 -5.140625 L 19.15625 -12.59375 L 25.515625 -27.859375 L 33.203125 -27.859375 L 33.203125 0 L 25.515625 0 Z M 2.625 -22.640625 L 10.078125 -6.765625 L 10.078125 0 L 2.625 0 Z M 2.625 -22.640625 "/></g></g></g><g fill="#fa3aab" fill-opacity="1"><g transform="translate(224.039504, 277.313807)"><g><path d="M 2.625 -27.859375 L 10.734375 -27.859375 L 10.734375 0 L 2.625 0 Z M 12.4375 -27.859375 L 22.71875 -27.859375 L 22.71875 -21.671875 L 12.4375 -21.671875 Z M 12.4375 -17.171875 L 20.8125 -17.171875 L 20.8125 -10.96875 L 12.4375 -10.96875 Z M 12.4375 -6.203125 L 22.71875 -6.203125 L 22.71875 0 L 12.4375 0 Z M 12.4375 -6.203125 "/></g></g></g><g clip-path="url(#6c407bfca4)"><g transform="matrix(1, 0, 0, 1, 0.000000000000007105, 279)"><g clip-path="url(#83d0bbe28e)"><g fill="#00e1e2" fill-opacity="1"><g transform="translate(0.648813, 30.878133)"><g><path d="M 19.625 0 L 19.625 -14.6875 L 19.515625 -14.6875 L 13.109375 0 L 11.40625 0 L 5.015625 -14.6875 L 4.90625 -14.6875 L 4.90625 0 L 2.71875 0 L 2.71875 -18.671875 L 5.859375 -18.671875 L 12.234375 -4.15625 L 12.375 -4.15625 L 18.75 -18.671875 L 21.90625 -18.671875 L 21.90625 0 Z M 19.625 0 "/></g></g></g><g fill="#00e1e2" fill-opacity="1"><g transform="translate(31.28586, 30.878133)"><g><path d="M 15.390625 0 L 13.46875 -4.96875 L 5.046875 -4.96875 L 3.125 0 L 0.765625 0 L 7.8125 -18.671875 L 10.75 -18.671875 L 17.796875 0 Z M 9.3125 -16.15625 L 9.171875 -16.15625 L 5.75 -7.171875 L 12.734375 -7.171875 Z M 9.3125 -16.15625 "/></g></g></g><g fill="#00e1e2" fill-opacity="1"><g transform="translate(55.871838, 30.878133)"><g><path d="M 14.765625 0 L 8.40625 -8.40625 L 5.046875 -8.40625 L 5.046875 0 L 2.71875 0 L 2.71875 -18.671875 L 5.046875 -18.671875 L 5.046875 -10.578125 L 8.40625 -10.578125 L 14.796875 -18.671875 L 17.390625 -18.671875 L 10.28125 -9.640625 L 17.484375 0 Z M 14.765625 0 "/></g></g></g><g fill="#00e1e2" fill-opacity="1"><g transform="translate(80.105057, 30.878133)"><g><path d="M 2.71875 0 L 2.71875 -18.671875 L 14.875 -18.671875 L 14.875 -16.5 L 5.046875 -16.5 L 5.046875 -10.5 L 13.5625 -10.5 L 13.5625 -8.328125 L 5.046875 -8.328125 L 5.046875 -2.171875 L 14.875 -2.171875 L 14.875 0 Z M 2.71875 0 "/></g></g></g><g fill="#00e1e2" fill-opacity="1"><g transform="translate(102.520241, 30.878133)"><g/></g></g><g fill="#00e1e2" fill-opacity="1"><g transform="translate(114.922665, 30.878133)"><g><path d="M 2.71875 0 L 2.71875 -18.671875 L 5.046875 -18.671875 L 5.046875 0 Z M 2.71875 0 "/></g></g></g><g fill="#00e1e2" fill-opacity="1"><g transform="translate(128.708973, 30.878133)"><g><path d="M 6.734375 0 L 6.734375 -16.421875 L 0.8125 -16.421875 L 0.8125 -18.671875 L 14.953125 -18.671875 L 14.953125 -16.421875 L 9.0625 -16.421875 L 9.0625 0 Z M 6.734375 0 "/></g></g></g><g fill="#00e1e2" fill-opacity="1"><g transform="translate(150.527195, 30.878133)"><g/></g></g><g fill="#00e1e2" fill-opacity="1"><g transform="translate(162.929619, 30.878133)"><g><path d="M 14.28125 0 L 11.375 -7.328125 L 5.046875 -7.328125 L 5.046875 0 L 2.71875 0 L 2.71875 -18.671875 L 11.296875 -18.671875 C 12.773438 -18.671875 13.894531 -18.4375 14.65625 -17.96875 C 15.414062 -17.5 15.910156 -16.863281 16.140625 -16.0625 C 16.378906 -15.269531 16.5 -14.25 16.5 -13 C 16.5 -11.71875 16.304688 -10.597656 15.921875 -9.640625 C 15.546875 -8.691406 14.769531 -8.046875 13.59375 -7.703125 L 16.765625 0 Z M 10.3125 -9.5 C 11.46875 -9.5 12.320312 -9.617188 12.875 -9.859375 C 13.425781 -10.109375 13.78125 -10.46875 13.9375 -10.9375 C 14.09375 -11.40625 14.171875 -12.09375 14.171875 -13 C 14.171875 -13.925781 14.097656 -14.625 13.953125 -15.09375 C 13.804688 -15.5625 13.472656 -15.910156 12.953125 -16.140625 C 12.441406 -16.378906 11.625 -16.5 10.5 -16.5 L 5.046875 -16.5 L 5.046875 -9.5 Z M 10.3125 -9.5 "/></g></g></g><g fill="#00e1e2" fill-opacity="1"><g transform="translate(187.461331, 30.878133)"><g><path d="M 2.71875 0 L 2.71875 -18.671875 L 14.875 -18.671875 L 14.875 -16.5 L 5.046875 -16.5 L 5.046875 -10.5 L 13.5625 -10.5 L 13.5625 -8.328125 L 5.046875 -8.328125 L 5.046875 -2.171875 L 14.875 -2.171875 L 14.875 0 Z M 2.71875 0 "/></g></g></g><g fill="#00e1e2" fill-opacity="1"><g transform="translate(209.876515, 30.878133)"><g><path d="M 15.390625 0 L 13.46875 -4.96875 L 5.046875 -4.96875 L 3.125 0 L 0.765625 0 L 7.8125 -18.671875 L 10.75 -18.671875 L 17.796875 0 Z M 9.3125 -16.15625 L 9.171875 -16.15625 L 5.75 -7.171875 L 12.734375 -7.171875 Z M 9.3125 -16.15625 "/></g></g></g><g fill="#00e1e2" fill-opacity="1"><g transform="translate(234.462493, 30.878133)"><g><path d="M 2.71875 0 L 2.71875 -18.671875 L 5.046875 -18.671875 L 5.046875 -2.25 L 13.765625 -2.25 L 13.765625 0 Z M 2.71875 0 "/></g></g></g></g></g></g></g></g></svg>