<svg xmlns="http://www.w3.org/2000/svg" xmlns:xlink="http://www.w3.org/1999/xlink" width="522" zoomAndPan="magnify" viewBox="0 0 391.5 109.499999" height="146" preserveAspectRatio="xMidYMid meet" version="1.0"><defs><filter x="0%" y="0%" width="100%" height="100%" id="82e2af2d95"><feColorMatrix values="0 0 0 0 1 0 0 0 0 1 0 0 0 0 1 0 0 0 1 0" color-interpolation-filters="sRGB"/></filter><g/><mask id="f482b31869"><g filter="url(#82e2af2d95)"><rect x="-39.15" width="469.8" fill="#000000" y="-10.95" height="131.399999" fill-opacity="0.28"/></g></mask><clipPath id="4ec99f3ef4"><path d="M 1 1 L 64.824219 1 L 64.824219 68 L 1 68 Z M 1 1 " clip-rule="nonzero"/></clipPath><clipPath id="3b65c8af7a"><rect x="0" width="65" y="0" height="69"/></clipPath><mask id="6761c61ae5"><g filter="url(#82e2af2d95)"><rect x="-39.15" width="469.8" fill="#000000" y="-10.95" height="131.399999" fill-opacity="0.1"/></g></mask><clipPath id="94d53263f0"><path d="M 1 1 L 32.824219 1 L 32.824219 53 L 1 53 Z M 1 1 " clip-rule="nonzero"/></clipPath><clipPath id="b7f92de6a5"><rect x="0" width="33" y="0" height="54"/></clipPath><mask id="da5a6fac53"><g filter="url(#82e2af2d95)"><rect x="-39.15" width="469.8" fill="#000000" y="-10.95" height="131.399999" fill-opacity="0.5"/></g></mask><clipPath id="571b3917ca"><path d="M 0.335938 1 L 32.824219 1 L 32.824219 68 L 0.335938 68 Z M 0.335938 1 " clip-rule="nonzero"/></clipPath><clipPath id="4c8747586d"><rect x="0" width="33" y="0" height="69"/></clipPath><mask id="79c5fe27de"><g filter="url(#82e2af2d95)"><rect x="-39.15" width="469.8" fill="#000000" y="-10.95" height="131.399999" fill-opacity="0.21"/></g></mask><clipPath id="b1e8b5fd2a"><path d="M 0.644531 0.21875 L 28.359375 0.21875 L 28.359375 32.230469 L 0.644531 32.230469 Z M 0.644531 0.21875 " clip-rule="nonzero"/></clipPath><clipPath id="e36407a352"><rect x="0" width="29" y="0" height="33"/></clipPath><mask id="882a19c47e"><g filter="url(#82e2af2d95)"><rect x="-39.15" width="469.8" fill="#000000" y="-10.95" height="131.399999" fill-opacity="0.51"/></g></mask><clipPath id="72144f606c"><path d="M 1 1 L 30.824219 1 L 30.824219 68 L 1 68 Z M 1 1 " clip-rule="nonzero"/></clipPath><clipPath id="de7a0ad5d8"><rect x="0" width="31" y="0" height="69"/></clipPath><mask id="bee7240f74"><g filter="url(#82e2af2d95)"><rect x="-39.15" width="469.8" fill="#000000" y="-10.95" height="131.399999" fill-opacity="0.42"/></g></mask><clipPath id="4679a7076b"><path d="M 0.046875 0.882812 L 44 0.882812 L 44 50.339844 L 0.046875 50.339844 Z M 0.046875 0.882812 " clip-rule="nonzero"/></clipPath><clipPath id="95f2d6c66d"><rect x="0" width="45" y="0" height="51"/></clipPath></defs><path fill="#01f8f5" d="M 10.234375 42.867188 L 11.378906 31.59375 C 10.433594 31.355469 9.734375 30.5 9.734375 29.480469 C 9.734375 28.308594 10.65625 27.355469 11.8125 27.300781 L 12.445312 21.042969 C 11.890625 20.785156 11.515625 20.203125 11.574219 19.539062 C 11.632812 18.824219 12.207031 18.242188 12.914062 18.167969 C 13.292969 18.128906 13.644531 18.230469 13.925781 18.421875 C 15.46875 17.382812 18.425781 15.515625 22.300781 13.652344 C 22.597656 13.511719 22.90625 13.367188 23.222656 13.21875 C 23.117188 12.832031 23.105469 12.410156 23.261719 11.960938 C 23.550781 11.121094 24.316406 10.511719 25.203125 10.460938 C 26.058594 10.414062 26.8125 10.855469 27.210938 11.535156 C 32.125 9.648438 38.253906 7.992188 44.714844 7.925781 C 46.851562 7.90625 49.007812 8.117188 51.175781 8.546875 C 51.402344 8.59375 51.628906 8.640625 51.855469 8.691406 C 52.183594 7.902344 52.960938 7.351562 53.867188 7.351562 C 55.074219 7.351562 56.054688 8.332031 56.054688 9.539062 C 56.054688 9.65625 56.042969 9.769531 56.023438 9.882812 C 57.1875 10.289062 58.351562 10.761719 59.515625 11.296875 C 63.597656 13.179688 66.863281 15.472656 69.1875 17.378906 C 69.625 17.0625 70.179688 16.894531 70.773438 16.976562 C 71.757812 17.105469 72.542969 17.910156 72.648438 18.898438 C 72.792969 20.214844 71.765625 21.328125 70.476562 21.328125 C 69.835938 21.328125 69.261719 21.046875 68.863281 20.609375 L 66.207031 22.375 C 67.863281 22.761719 69.558594 23.316406 71.292969 24.054688 L 53.632812 34.148438 C 52.867188 34.589844 52.210938 35.203125 51.726562 35.945312 L 44.914062 46.347656 C 44.382812 47.160156 44.402344 48.21875 44.96875 49.011719 L 48.636719 54.160156 L 46.359375 48.992188 C 46.011719 48.203125 46.121094 47.285156 46.648438 46.601562 L 52.964844 38.386719 L 53.066406 38.257812 C 53.828125 37.230469 54.917969 36.5 56.152344 36.179688 L 61.394531 34.828125 L 75.945312 31.066406 C 75.949219 31.066406 75.949219 31.066406 75.949219 31.066406 C 75.949219 31.066406 75.949219 31.070312 75.949219 31.074219 C 75 35.597656 73.0625 41.488281 73.933594 44.796875 C 74.804688 48.113281 79.652344 54.230469 82.226562 57.3125 C 82.972656 58.207031 82.570312 59.570312 81.457031 59.917969 C 79.886719 60.40625 77.917969 61.054688 76.8125 61.542969 C 75.695312 62.035156 75.984375 63.394531 76.472656 64.523438 C 76.871094 65.441406 76.347656 66.496094 75.375 66.746094 L 72.972656 67.363281 L 74.8125 68.980469 C 75.292969 69.402344 75.25 70.179688 74.710938 70.523438 C 73.605469 71.234375 72.320312 72.871094 73.332031 76.546875 C 74.953125 82.429688 70.804688 82.40625 60.4375 82.898438 C 60.199219 82.910156 59.972656 82.929688 59.753906 82.957031 C 50.867188 84.023438 60.4375 97.074219 61.0625 97.914062 L 61.09375 97.953125 C 61.09375 97.953125 61.09375 97.957031 61.097656 97.957031 C 46.140625 88.351562 32.28125 84.753906 19.050781 84.628906 C 19.050781 84.628906 20.621094 81.457031 21.613281 77.453125 C 20.785156 77.175781 20.179688 76.421875 20.125 75.515625 C 20.050781 74.304688 21.046875 73.21875 22.261719 73.195312 C 22.671875 73.1875 23.054688 73.292969 23.386719 73.484375 L 32.675781 61.699219 C 32.628906 61.644531 32.582031 61.589844 32.539062 61.535156 L 23.738281 66.398438 C 23.882812 66.785156 23.925781 67.222656 23.8125 67.679688 C 23.589844 68.582031 22.796875 69.257812 21.871094 69.332031 C 20.582031 69.4375 19.503906 68.421875 19.503906 67.15625 C 19.503906 66.359375 19.933594 65.664062 20.574219 65.28125 C 19.554688 62.9375 18.136719 60.078125 16.664062 57.257812 C 16.417969 56.78125 16.164062 56.304688 15.917969 55.832031 C 15.652344 55.902344 15.355469 55.902344 15.042969 55.761719 C 14.585938 55.558594 14.261719 55.121094 14.230469 54.621094 C 14.199219 54.183594 14.382812 53.789062 14.683594 53.523438 C 13.28125 50.925781 11.988281 48.609375 11.128906 47.085938 C 10.8125 47.207031 10.46875 47.261719 10.101562 47.21875 C 9.039062 47.101562 8.199219 46.199219 8.160156 45.128906 C 8.117188 43.921875 9.054688 42.925781 10.234375 42.867188 Z M 13.089844 21.179688 L 12.464844 27.367188 C 12.816406 27.457031 13.136719 27.636719 13.398438 27.875 L 20.105469 22.492188 C 20.027344 22.320312 19.980469 22.128906 19.980469 21.929688 C 19.980469 21.890625 19.984375 21.855469 19.984375 21.820312 L 14.457031 20.28125 C 14.226562 20.808594 13.699219 21.175781 13.089844 21.179688 Z M 14.0625 29.914062 L 22.445312 32.964844 C 22.957031 31.777344 23.851562 30.800781 24.976562 30.183594 L 21.679688 23.226562 C 21.566406 23.257812 21.449219 23.277344 21.328125 23.277344 C 21.023438 23.277344 20.742188 23.171875 20.515625 23 L 13.808594 28.382812 C 13.996094 28.707031 14.105469 29.082031 14.105469 29.480469 C 14.105469 29.628906 14.089844 29.773438 14.0625 29.914062 Z M 22.890625 38.34375 L 12.382812 44.273438 C 12.472656 44.503906 12.523438 44.753906 12.527344 45.015625 L 19.691406 45.988281 L 21.894531 46.289062 C 22.09375 45.792969 22.578125 45.441406 23.144531 45.441406 C 23.207031 45.441406 23.265625 45.445312 23.324219 45.453125 L 25.308594 40.457031 C 24.617188 40.136719 24 39.679688 23.492188 39.125 C 23.269531 38.882812 23.070312 38.621094 22.890625 38.34375 Z M 23.496094 13.828125 C 19.265625 15.785156 16.042969 17.796875 14.378906 18.90625 C 14.507812 19.121094 14.578125 19.371094 14.585938 19.636719 L 20.195312 21.199219 C 20.4375 20.828125 20.855469 20.582031 21.328125 20.582031 C 21.414062 20.582031 21.5 20.589844 21.582031 20.605469 L 24.183594 14.5 C 23.90625 14.332031 23.671875 14.101562 23.496094 13.828125 Z M 25.234375 14.824219 C 25.078125 14.816406 24.929688 14.792969 24.785156 14.757812 L 22.175781 20.882812 C 22.480469 21.128906 22.675781 21.503906 22.675781 21.929688 C 22.675781 22.316406 22.511719 22.664062 22.25 22.910156 L 25.570312 29.902344 C 25.960938 29.746094 26.375 29.628906 26.804688 29.558594 Z M 26.945312 14.109375 C 26.664062 14.417969 26.300781 14.644531 25.882812 14.753906 L 27.453125 29.488281 C 27.546875 29.484375 27.640625 29.480469 27.734375 29.480469 C 29.226562 29.480469 30.582031 30.046875 31.605469 30.972656 L 38.832031 23.867188 C 38.472656 23.476562 38.253906 22.960938 38.253906 22.386719 C 38.253906 22.148438 38.292969 21.917969 38.363281 21.703125 Z M 53.457031 65.941406 C 53.3125 65.996094 53.15625 66.023438 52.996094 66.023438 C 52.675781 66.023438 52.382812 65.910156 52.152344 65.726562 L 45.507812 70.75 C 45.558594 70.867188 45.589844 70.996094 45.605469 71.128906 L 53.085938 72.148438 C 53.265625 71.671875 53.707031 71.324219 54.238281 71.28125 C 54.285156 69.585938 54.042969 67.792969 53.457031 65.941406 Z M 51.660156 64.523438 L 36.300781 61.003906 C 36.214844 61.222656 36.097656 61.421875 35.949219 61.601562 L 43.632812 70.085938 C 43.820312 69.984375 44.039062 69.929688 44.265625 69.929688 C 44.585938 69.929688 44.882812 70.042969 45.113281 70.226562 L 51.757812 65.203125 C 51.6875 65.042969 51.648438 64.863281 51.648438 64.675781 C 51.648438 64.625 51.652344 64.574219 51.660156 64.523438 Z M 41.890625 84.214844 C 47.949219 83.601562 52.65625 79.523438 53.914062 73.898438 C 53.433594 73.738281 53.078125 73.3125 53.007812 72.800781 L 45.515625 71.777344 C 45.316406 72.273438 44.835938 72.625 44.265625 72.625 C 44.261719 72.625 44.253906 72.621094 44.25 72.621094 L 41.445312 83.191406 C 41.71875 83.4375 41.890625 83.792969 41.890625 84.1875 C 41.890625 84.199219 41.890625 84.207031 41.890625 84.214844 Z M 43.617188 72.457031 C 43.203125 72.226562 42.921875 71.785156 42.921875 71.277344 C 42.921875 71 43.003906 70.738281 43.148438 70.527344 L 35.460938 62.035156 C 35.359375 62.101562 35.25 62.164062 35.132812 62.210938 L 40.53125 82.84375 L 40.542969 82.84375 C 40.652344 82.84375 40.753906 82.855469 40.855469 82.878906 Z M 39.203125 84.261719 C 39.199219 84.238281 39.199219 84.214844 39.199219 84.1875 C 39.199219 83.949219 39.261719 83.722656 39.371094 83.53125 L 32.574219 74.402344 C 32.421875 74.460938 32.257812 74.496094 32.085938 74.496094 C 31.589844 74.496094 31.160156 74.230469 30.925781 73.832031 L 24.488281 75.488281 C 24.460938 75.976562 24.28125 76.417969 23.992188 76.769531 C 27.074219 79.890625 31.171875 82.683594 36.492188 83.871094 C 37.414062 84.078125 38.316406 84.203125 39.203125 84.261719 Z M 33.429688 73.148438 C 33.429688 73.484375 33.308594 73.789062 33.109375 74.023438 L 39.828125 83.050781 C 39.851562 83.035156 39.875 83.019531 39.898438 83.007812 L 34.5 62.378906 C 34.425781 62.382812 34.347656 62.390625 34.269531 62.390625 L 34.261719 62.390625 L 32.632812 71.921875 C 33.105469 72.132812 33.429688 72.601562 33.429688 73.148438 Z M 34.269531 58.019531 C 34.535156 58.019531 34.789062 58.070312 35.027344 58.15625 L 39.863281 49.398438 C 39.613281 49.152344 39.457031 48.808594 39.457031 48.429688 C 39.457031 48.175781 39.527344 47.9375 39.652344 47.734375 L 31.546875 39.550781 C 30.960938 40.070312 30.269531 40.46875 29.507812 40.714844 L 34.039062 58.03125 C 34.113281 58.023438 34.191406 58.019531 34.269531 58.019531 Z M 47.355469 31.71875 L 44.0625 27.566406 L 41.476562 24.308594 C 41.167969 24.476562 40.8125 24.574219 40.4375 24.574219 C 40.039062 24.574219 39.667969 24.464844 39.34375 24.277344 L 32.0625 31.441406 C 32.179688 31.574219 32.289062 31.714844 32.394531 31.859375 C 32.929688 32.59375 33.296875 33.46875 33.433594 34.410156 L 46.910156 33.234375 C 46.90625 33.175781 46.898438 33.113281 46.898438 33.050781 C 46.898438 32.550781 47.070312 32.089844 47.355469 31.71875 Z M 47.0625 33.878906 L 33.488281 35.0625 C 33.488281 35.121094 33.492188 35.179688 33.492188 35.238281 C 33.492188 35.835938 33.402344 36.414062 33.230469 36.960938 L 37.554688 38.589844 C 37.785156 38.171875 38.226562 37.894531 38.730469 37.894531 C 39.105469 37.894531 39.445312 38.046875 39.6875 38.292969 L 47.074219 33.90625 C 47.070312 33.894531 47.066406 33.886719 47.0625 33.878906 Z M 38.554688 40.574219 C 37.894531 40.484375 37.386719 39.921875 37.386719 39.242188 L 37.386719 39.222656 L 33 37.570312 C 32.75 38.128906 32.417969 38.640625 32.011719 39.089844 L 40.117188 47.273438 C 40.132812 47.265625 40.148438 47.253906 40.164062 47.246094 Z M 38.660156 21.117188 C 38.96875 20.683594 39.433594 20.371094 39.972656 20.253906 L 39.683594 15.089844 C 39.132812 14.984375 38.703125 14.546875 38.609375 13.992188 L 27.457031 13.136719 C 27.421875 13.285156 27.371094 13.429688 27.308594 13.566406 Z M 51.695312 9.308594 C 51.585938 9.285156 51.472656 9.261719 51.363281 9.238281 C 49.257812 8.800781 47.035156 8.554688 44.722656 8.582031 C 38.46875 8.640625 32.496094 10.207031 27.457031 12.152344 C 27.484375 12.257812 27.5 12.371094 27.507812 12.484375 L 38.65625 13.34375 C 38.835938 12.808594 39.339844 12.421875 39.933594 12.421875 C 40.425781 12.421875 40.851562 12.683594 41.089844 13.078125 L 51.527344 9.910156 L 51.710938 9.851562 C 51.695312 9.75 51.683594 9.644531 51.683594 9.539062 C 51.683594 9.460938 51.6875 9.382812 51.695312 9.308594 Z M 51.898438 10.476562 L 51.664062 10.546875 L 41.277344 13.703125 C 41.28125 13.722656 41.28125 13.746094 41.28125 13.769531 C 41.28125 14.375 40.882812 14.886719 40.332031 15.054688 L 40.621094 20.210938 C 41.132812 20.253906 41.59375 20.472656 41.941406 20.808594 L 51.777344 11.136719 L 52.101562 10.820312 C 52.023438 10.710938 51.957031 10.597656 51.898438 10.476562 Z M 55.835938 10.484375 C 55.628906 10.910156 55.292969 11.257812 54.875 11.476562 L 57.621094 19.511719 C 57.660156 19.507812 57.695312 19.503906 57.734375 19.503906 C 58.25 19.503906 58.695312 19.792969 58.921875 20.214844 L 68.296875 19.074219 C 68.308594 18.613281 68.464844 18.191406 68.722656 17.84375 C 65.96875 15.589844 61.480469 12.46875 55.835938 10.484375 Z M 50.871094 31.792969 L 68.5 20.0625 C 68.449219 19.957031 68.40625 19.84375 68.375 19.726562 L 59.082031 20.855469 C 59.082031 21.597656 58.476562 22.199219 57.734375 22.199219 C 57.570312 22.199219 57.410156 22.167969 57.265625 22.113281 L 50.699219 31.582031 C 50.761719 31.648438 50.816406 31.71875 50.871094 31.792969 Z M 50.191406 31.171875 L 56.726562 21.742188 C 56.515625 21.503906 56.386719 21.195312 56.386719 20.851562 C 56.386719 20.378906 56.632812 19.960938 57.003906 19.722656 L 54.257812 11.6875 C 54.132812 11.707031 54 11.722656 53.867188 11.722656 C 53.835938 11.722656 53.800781 11.71875 53.765625 11.71875 L 49.890625 31.023438 C 49.996094 31.0625 50.09375 31.113281 50.191406 31.171875 Z M 49.253906 30.875 L 53.125 11.589844 C 52.917969 11.515625 52.730469 11.414062 52.558594 11.285156 L 51.902344 11.929688 L 42.347656 21.328125 C 42.523438 21.640625 42.621094 22.003906 42.621094 22.386719 C 42.621094 22.984375 42.382812 23.519531 42 23.914062 L 44.632812 27.234375 L 47.832031 31.265625 C 48.1875 31.015625 48.617188 30.867188 49.085938 30.867188 C 49.140625 30.867188 49.199219 30.871094 49.253906 30.875 Z M 47.882812 34.875 C 47.707031 34.761719 47.550781 34.621094 47.417969 34.460938 L 40.023438 38.855469 C 40.058594 38.976562 40.078125 39.105469 40.078125 39.242188 C 40.078125 39.816406 39.71875 40.308594 39.207031 40.5 L 40.796875 47.085938 L 40.804688 47.085938 C 40.910156 47.085938 41.015625 47.097656 41.121094 47.125 Z M 45.40625 54.429688 C 43.730469 52.933594 42.414062 51.3125 41.429688 49.625 C 41.242188 49.722656 41.027344 49.777344 40.804688 49.777344 C 40.671875 49.777344 40.546875 49.757812 40.429688 49.726562 L 35.597656 58.472656 C 36.117188 58.871094 36.453125 59.5 36.453125 60.203125 C 36.453125 60.257812 36.449219 60.3125 36.445312 60.367188 L 51.894531 63.90625 C 52.039062 63.703125 52.234375 63.539062 52.464844 63.441406 C 51.054688 60.476562 48.765625 57.421875 45.40625 54.429688 Z M 23.898438 73.890625 C 24.144531 74.152344 24.328125 74.472656 24.417969 74.832031 L 30.738281 73.203125 C 30.738281 73.1875 30.738281 73.167969 30.738281 73.148438 C 30.738281 72.4375 31.289062 71.855469 31.988281 71.808594 L 33.617188 62.289062 C 33.464844 62.242188 33.324219 62.179688 33.1875 62.101562 Z M 33.140625 58.335938 C 33.226562 58.285156 33.316406 58.234375 33.40625 58.195312 L 28.875 40.878906 C 28.507812 40.953125 28.125 40.996094 27.734375 40.996094 C 27.101562 40.996094 26.488281 40.890625 25.917969 40.699219 L 23.929688 45.695312 C 24.269531 45.941406 24.492188 46.335938 24.492188 46.789062 C 24.492188 47.085938 24.394531 47.363281 24.230469 47.582031 Z M 23.421875 65.828125 L 32.222656 60.964844 C 32.132812 60.726562 32.085938 60.472656 32.085938 60.203125 C 32.085938 59.644531 32.296875 59.136719 32.640625 58.75 L 23.726562 48.003906 C 23.625 48.050781 23.519531 48.085938 23.40625 48.109375 L 22.175781 65.027344 C 22.679688 65.140625 23.117188 65.429688 23.421875 65.828125 Z M 16.84375 56.191406 C 18.460938 59.269531 20.058594 62.457031 21.179688 65.035156 C 21.289062 65.007812 21.402344 64.988281 21.519531 64.980469 L 22.753906 48.078125 C 22.652344 48.046875 22.558594 48.003906 22.464844 47.949219 L 17.484375 53.042969 L 16.71875 53.824219 C 16.84375 54.03125 16.917969 54.273438 16.917969 54.53125 C 16.917969 54.921875 16.753906 55.269531 16.488281 55.515625 C 16.609375 55.742188 16.726562 55.964844 16.84375 56.191406 Z M 15.261719 53.222656 C 15.363281 53.199219 15.464844 53.183594 15.574219 53.183594 C 15.820312 53.183594 16.054688 53.25 16.253906 53.367188 L 17.789062 51.796875 L 22 47.492188 C 21.894531 47.328125 21.828125 47.136719 21.804688 46.9375 L 19.441406 46.613281 L 12.4375 45.664062 C 12.3125 46.101562 12.046875 46.484375 11.695312 46.761719 C 12.558594 48.292969 13.855469 50.617188 15.261719 53.222656 Z M 12.0625 43.703125 L 22.570312 37.777344 C 22.191406 37.011719 21.980469 36.148438 21.980469 35.238281 C 21.980469 34.660156 22.066406 34.105469 22.222656 33.578125 L 13.839844 30.527344 C 13.484375 31.175781 12.808594 31.621094 12.027344 31.660156 L 10.886719 42.933594 C 11.359375 43.054688 11.769531 43.328125 12.0625 43.703125 Z M 12.0625 43.703125 " fill-opacity="1" fill-rule="nonzero"/><path fill="#ff66c4" d="M 46.167969 20.421875 C 46.167969 20.613281 46.234375 20.777344 46.371094 20.914062 C 46.507812 21.050781 46.671875 21.117188 46.863281 21.117188 C 47.054688 21.117188 47.21875 21.050781 47.355469 20.914062 C 47.492188 20.777344 47.558594 20.613281 47.558594 20.421875 C 47.558594 20.230469 47.492188 20.066406 47.355469 19.929688 C 47.21875 19.792969 47.054688 19.726562 46.863281 19.726562 C 46.671875 19.726562 46.507812 19.792969 46.371094 19.929688 C 46.234375 20.066406 46.167969 20.230469 46.167969 20.421875 Z M 46.167969 20.421875 " fill-opacity="1" fill-rule="nonzero"/><path fill="#ff66c4" d="M 41.996094 10.636719 C 41.996094 10.847656 42.074219 11.03125 42.222656 11.183594 C 42.375 11.332031 42.558594 11.410156 42.769531 11.410156 C 42.984375 11.410156 43.167969 11.332031 43.316406 11.183594 C 43.46875 11.03125 43.542969 10.847656 43.542969 10.636719 C 43.542969 10.421875 43.46875 10.238281 43.316406 10.089844 C 43.167969 9.9375 42.984375 9.863281 42.769531 9.863281 C 42.558594 9.863281 42.375 9.9375 42.222656 10.089844 C 42.074219 10.238281 41.996094 10.421875 41.996094 10.636719 Z M 41.996094 10.636719 " fill-opacity="1" fill-rule="nonzero"/><path fill="#ff66c4" d="M 27.457031 4.359375 C 27.457031 4.640625 27.511719 4.910156 27.617188 5.167969 C 27.726562 5.425781 27.878906 5.65625 28.074219 5.855469 C 28.273438 6.050781 28.503906 6.203125 28.761719 6.3125 C 29.019531 6.417969 29.289062 6.472656 29.570312 6.472656 C 29.851562 6.472656 30.121094 6.417969 30.378906 6.3125 C 30.636719 6.203125 30.867188 6.050781 31.0625 5.855469 C 31.261719 5.65625 31.414062 5.425781 31.519531 5.167969 C 31.628906 4.910156 31.683594 4.640625 31.683594 4.359375 C 31.683594 4.078125 31.628906 3.808594 31.519531 3.550781 C 31.414062 3.292969 31.261719 3.0625 31.0625 2.867188 C 30.867188 2.667969 30.636719 2.515625 30.378906 2.410156 C 30.121094 2.300781 29.851562 2.246094 29.570312 2.246094 C 29.289062 2.246094 29.019531 2.300781 28.761719 2.410156 C 28.503906 2.515625 28.273438 2.667969 28.074219 2.867188 C 27.878906 3.0625 27.726562 3.292969 27.617188 3.550781 C 27.511719 3.808594 27.457031 4.078125 27.457031 4.359375 Z M 27.457031 4.359375 " fill-opacity="1" fill-rule="nonzero"/><path fill="#ff66c4" d="M 2.292969 18.628906 C 2.292969 18.808594 2.355469 18.960938 2.480469 19.085938 C 2.605469 19.210938 2.757812 19.273438 2.9375 19.273438 C 3.117188 19.273438 3.265625 19.210938 3.394531 19.085938 C 3.519531 18.960938 3.582031 18.808594 3.582031 18.628906 C 3.582031 18.449219 3.519531 18.296875 3.394531 18.171875 C 3.265625 18.046875 3.117188 17.984375 2.9375 17.984375 C 2.757812 17.984375 2.605469 18.046875 2.480469 18.171875 C 2.355469 18.296875 2.292969 18.449219 2.292969 18.628906 Z M 2.292969 18.628906 " fill-opacity="1" fill-rule="nonzero"/><path fill="#ff66c4" d="M 5.546875 28.757812 C 5.546875 28.886719 5.59375 29 5.6875 29.089844 C 5.777344 29.183594 5.890625 29.230469 6.019531 29.230469 C 6.148438 29.230469 6.261719 29.183594 6.351562 29.089844 C 6.445312 29 6.492188 28.886719 6.492188 28.757812 C 6.492188 28.628906 6.445312 28.515625 6.351562 28.425781 C 6.261719 28.332031 6.148438 28.285156 6.019531 28.285156 C 5.890625 28.285156 5.777344 28.332031 5.6875 28.425781 C 5.59375 28.515625 5.546875 28.628906 5.546875 28.757812 Z M 5.546875 28.757812 " fill-opacity="1" fill-rule="nonzero"/><path fill="#ff66c4" d="M 15.429688 9.863281 C 15.429688 10.097656 15.511719 10.300781 15.679688 10.46875 C 15.847656 10.636719 16.046875 10.71875 16.285156 10.71875 C 16.519531 10.71875 16.722656 10.636719 16.890625 10.46875 C 17.058594 10.300781 17.140625 10.097656 17.140625 9.863281 C 17.140625 9.625 17.058594 9.425781 16.890625 9.257812 C 16.722656 9.089844 16.519531 9.007812 16.285156 9.007812 C 16.046875 9.007812 15.847656 9.089844 15.679688 9.257812 C 15.511719 9.425781 15.429688 9.625 15.429688 9.863281 Z M 15.429688 9.863281 " fill-opacity="1" fill-rule="nonzero"/><path fill="#ff66c4" d="M 4.15625 38.347656 C 4.15625 38.507812 4.1875 38.664062 4.246094 38.8125 C 4.308594 38.960938 4.398438 39.09375 4.511719 39.207031 C 4.625 39.324219 4.757812 39.410156 4.90625 39.472656 C 5.058594 39.535156 5.210938 39.566406 5.375 39.566406 C 5.535156 39.566406 5.691406 39.535156 5.839844 39.472656 C 5.988281 39.410156 6.121094 39.324219 6.238281 39.207031 C 6.351562 39.09375 6.4375 38.960938 6.5 38.8125 C 6.5625 38.664062 6.59375 38.507812 6.59375 38.347656 C 6.59375 38.183594 6.5625 38.027344 6.5 37.878906 C 6.4375 37.730469 6.351562 37.597656 6.238281 37.484375 C 6.121094 37.371094 5.988281 37.28125 5.839844 37.21875 C 5.691406 37.15625 5.535156 37.125 5.375 37.125 C 5.210938 37.125 5.058594 37.15625 4.90625 37.21875 C 4.757812 37.28125 4.625 37.371094 4.511719 37.484375 C 4.398438 37.597656 4.308594 37.730469 4.246094 37.878906 C 4.1875 38.027344 4.15625 38.183594 4.15625 38.347656 Z M 4.15625 38.347656 " fill-opacity="1" fill-rule="nonzero"/><path fill="#ff66c4" d="M 11.695312 65.125 C 11.695312 65.265625 11.722656 65.398438 11.773438 65.53125 C 11.828125 65.660156 11.90625 65.773438 12.003906 65.871094 C 12.101562 65.972656 12.21875 66.046875 12.347656 66.101562 C 12.476562 66.15625 12.609375 66.183594 12.75 66.183594 C 12.890625 66.183594 13.027344 66.15625 13.15625 66.101562 C 13.285156 66.046875 13.398438 65.972656 13.5 65.871094 C 13.597656 65.773438 13.671875 65.660156 13.726562 65.53125 C 13.78125 65.398438 13.808594 65.265625 13.808594 65.125 C 13.808594 64.984375 13.78125 64.851562 13.726562 64.722656 C 13.671875 64.589844 13.597656 64.476562 13.5 64.378906 C 13.398438 64.28125 13.285156 64.203125 13.15625 64.148438 C 13.027344 64.097656 12.890625 64.070312 12.75 64.070312 C 12.609375 64.070312 12.476562 64.097656 12.347656 64.148438 C 12.21875 64.203125 12.101562 64.28125 12.003906 64.378906 C 11.90625 64.476562 11.828125 64.589844 11.773438 64.722656 C 11.722656 64.851562 11.695312 64.984375 11.695312 65.125 Z M 11.695312 65.125 " fill-opacity="1" fill-rule="nonzero"/><path fill="#ff66c4" d="M 27.308594 46.105469 C 27.308594 46.292969 27.375 46.453125 27.507812 46.585938 C 27.640625 46.71875 27.800781 46.785156 27.988281 46.785156 C 28.175781 46.785156 28.335938 46.71875 28.46875 46.585938 C 28.601562 46.453125 28.667969 46.292969 28.667969 46.105469 C 28.667969 45.917969 28.601562 45.757812 28.46875 45.625 C 28.335938 45.492188 28.175781 45.425781 27.988281 45.425781 C 27.800781 45.425781 27.640625 45.492188 27.507812 45.625 C 27.375 45.757812 27.308594 45.917969 27.308594 46.105469 Z M 27.308594 46.105469 " fill-opacity="1" fill-rule="nonzero"/><path fill="#ff66c4" d="M 24.976562 56.945312 C 24.976562 57.070312 25.023438 57.175781 25.109375 57.265625 C 25.199219 57.355469 25.304688 57.398438 25.429688 57.398438 C 25.554688 57.398438 25.664062 57.355469 25.75 57.265625 C 25.839844 57.175781 25.882812 57.070312 25.882812 56.945312 C 25.882812 56.820312 25.839844 56.714844 25.75 56.625 C 25.664062 56.535156 25.554688 56.492188 25.429688 56.492188 C 25.304688 56.492188 25.199219 56.535156 25.109375 56.625 C 25.023438 56.714844 24.976562 56.820312 24.976562 56.945312 Z M 24.976562 56.945312 " fill-opacity="1" fill-rule="nonzero"/><path fill="#ff66c4" d="M 41.996094 57.265625 C 41.996094 57.480469 42.074219 57.660156 42.222656 57.8125 C 42.375 57.964844 42.558594 58.039062 42.769531 58.039062 C 42.984375 58.039062 43.167969 57.964844 43.316406 57.8125 C 43.46875 57.660156 43.542969 57.480469 43.542969 57.265625 C 43.542969 57.050781 43.46875 56.871094 43.316406 56.71875 C 43.167969 56.566406 42.984375 56.492188 42.769531 56.492188 C 42.558594 56.492188 42.375 56.566406 42.222656 56.71875 C 42.074219 56.871094 41.996094 57.050781 41.996094 57.265625 Z M 41.996094 57.265625 " fill-opacity="1" fill-rule="nonzero"/><path fill="#ff66c4" d="M 29.507812 22.515625 C 29.507812 22.660156 29.535156 22.800781 29.589844 22.933594 C 29.644531 23.066406 29.722656 23.183594 29.828125 23.285156 C 29.929688 23.386719 30.046875 23.464844 30.179688 23.519531 C 30.3125 23.574219 30.449219 23.601562 30.59375 23.601562 C 30.738281 23.601562 30.878906 23.574219 31.011719 23.519531 C 31.144531 23.464844 31.261719 23.386719 31.363281 23.285156 C 31.464844 23.183594 31.542969 23.066406 31.597656 22.933594 C 31.65625 22.800781 31.683594 22.660156 31.683594 22.515625 C 31.683594 22.371094 31.65625 22.234375 31.597656 22.101562 C 31.542969 21.96875 31.464844 21.847656 31.363281 21.746094 C 31.261719 21.644531 31.144531 21.566406 31.011719 21.511719 C 30.878906 21.457031 30.738281 21.429688 30.59375 21.429688 C 30.449219 21.429688 30.3125 21.457031 30.179688 21.511719 C 30.046875 21.566406 29.929688 21.644531 29.828125 21.746094 C 29.722656 21.847656 29.644531 21.96875 29.589844 22.101562 C 29.535156 22.234375 29.507812 22.371094 29.507812 22.515625 Z M 29.507812 22.515625 " fill-opacity="1" fill-rule="nonzero"/><path fill="#ff66c4" d="M 4.050781 7.351562 C 4.050781 7.550781 4.089844 7.742188 4.164062 7.925781 C 4.242188 8.109375 4.347656 8.269531 4.488281 8.410156 C 4.628906 8.550781 4.792969 8.660156 4.976562 8.734375 C 5.160156 8.8125 5.351562 8.847656 5.546875 8.847656 C 5.746094 8.847656 5.9375 8.8125 6.121094 8.734375 C 6.304688 8.660156 6.464844 8.550781 6.605469 8.410156 C 6.746094 8.269531 6.855469 8.109375 6.929688 7.925781 C 7.007812 7.742188 7.046875 7.550781 7.046875 7.351562 C 7.046875 7.152344 7.007812 6.964844 6.929688 6.78125 C 6.855469 6.597656 6.746094 6.433594 6.605469 6.292969 C 6.464844 6.152344 6.304688 6.046875 6.121094 5.96875 C 5.9375 5.894531 5.746094 5.855469 5.546875 5.855469 C 5.351562 5.855469 5.160156 5.894531 4.976562 5.96875 C 4.792969 6.046875 4.628906 6.152344 4.488281 6.292969 C 4.347656 6.433594 4.242188 6.597656 4.164062 6.78125 C 4.089844 6.964844 4.050781 7.152344 4.050781 7.351562 Z M 4.050781 7.351562 " fill-opacity="1" fill-rule="nonzero"/><g mask="url(#f482b31869)"><g transform="matrix(1, 0, 0, 1, 18, 30)"><g clip-path="url(#3b65c8af7a)"><g clip-path="url(#4ec99f3ef4)"><path fill="#ff66c4" d="M 43.0625 67.914062 C 42.4375 67.074219 32.867188 54.023438 41.753906 52.957031 C 41.972656 52.929688 42.199219 52.910156 42.4375 52.898438 C 52.804688 52.40625 56.953125 52.429688 55.332031 46.546875 C 54.320312 42.871094 55.605469 41.234375 56.710938 40.523438 C 57.25 40.179688 57.292969 39.402344 56.8125 38.980469 L 54.972656 37.363281 L 57.375 36.746094 C 58.347656 36.496094 58.871094 35.441406 58.472656 34.523438 C 57.984375 33.394531 57.695312 32.035156 58.8125 31.542969 C 59.917969 31.054688 61.886719 30.40625 63.457031 29.917969 C 64.570312 29.570312 64.972656 28.207031 64.226562 27.3125 C 61.652344 24.230469 56.804688 18.113281 55.933594 14.796875 C 55.0625 11.488281 57 5.597656 57.949219 1.074219 C 57.949219 1.070312 57.949219 1.066406 57.949219 1.066406 C 57.949219 1.066406 57.949219 1.066406 57.945312 1.066406 L 43.394531 4.828125 L 38.152344 6.179688 C 36.917969 6.5 35.828125 7.230469 35.066406 8.257812 L 34.964844 8.386719 L 28.648438 16.601562 C 28.121094 17.285156 28.011719 18.203125 28.359375 18.992188 L 30.636719 24.160156 C 30.636719 24.160156 51.136719 44.320312 36.242188 52.160156 C 21.351562 60 15.71875 52.394531 1.050781 54.628906 C 14.28125 54.753906 28.140625 58.351562 43.097656 67.957031 C 43.09375 67.957031 43.09375 67.953125 43.09375 67.953125 Z M 43.0625 67.914062 " fill-opacity="1" fill-rule="nonzero"/></g></g></g></g><g mask="url(#6761c61ae5)"><g transform="matrix(1, 0, 0, 1, 50, 30)"><g clip-path="url(#b7f92de6a5)"><g clip-path="url(#94d53263f0)"><path fill="#d9d9d9" d="M 5.421875 31.003906 C 11.734375 43.097656 11.175781 49.660156 9.753906 52.957031 C 9.972656 52.929688 10.199219 52.910156 10.4375 52.898438 C 20.804688 52.40625 24.953125 52.429688 23.332031 46.546875 C 22.320312 42.871094 23.605469 41.234375 24.710938 40.523438 C 25.25 40.179688 25.292969 39.402344 24.8125 38.980469 L 22.972656 37.363281 L 25.375 36.746094 C 26.347656 36.496094 26.871094 35.441406 26.472656 34.523438 C 25.984375 33.394531 25.695312 32.035156 26.8125 31.542969 C 27.917969 31.054688 29.886719 30.40625 31.457031 29.917969 C 32.570312 29.570312 32.972656 28.207031 32.226562 27.3125 C 29.652344 24.230469 24.804688 18.113281 23.933594 14.796875 C 23.0625 11.488281 25 5.597656 25.949219 1.074219 C 25.949219 1.070312 25.949219 1.066406 25.949219 1.066406 C 25.949219 1.066406 25.949219 1.066406 25.945312 1.066406 L 11.394531 4.828125 L 6.152344 6.179688 C 4.917969 6.5 3.828125 7.230469 3.066406 8.257812 L 2.964844 8.386719 C 0.746094 12.296875 -0.636719 19.394531 5.421875 31.003906 Z M 5.421875 31.003906 " fill-opacity="1" fill-rule="nonzero"/></g></g></g></g><g mask="url(#da5a6fac53)"><g transform="matrix(1, 0, 0, 1, 50, 30)"><g clip-path="url(#4c8747586d)"><g clip-path="url(#571b3917ca)"><path fill="#ff66c4" d="M 11.0625 67.914062 C 10.421875 67.050781 0.398438 53.378906 10.4375 52.898438 C 20.804688 52.40625 24.953125 52.429688 23.332031 46.546875 C 22.320312 42.871094 23.605469 41.234375 24.710938 40.523438 C 25.25 40.179688 25.292969 39.402344 24.8125 38.980469 L 22.972656 37.363281 L 25.375 36.746094 C 26.347656 36.496094 26.871094 35.441406 26.472656 34.523438 C 25.984375 33.394531 25.695312 32.035156 26.8125 31.542969 C 27.917969 31.054688 29.886719 30.40625 31.457031 29.917969 C 32.570312 29.570312 32.972656 28.207031 32.226562 27.3125 C 29.652344 24.230469 24.804688 18.113281 23.933594 14.796875 C 23.0625 11.488281 25 5.597656 25.949219 1.074219 C 25.949219 1.070312 25.949219 1.066406 25.949219 1.066406 C 25.949219 1.066406 25.949219 1.066406 25.945312 1.066406 L 11.394531 4.828125 L 9.503906 7.726562 C 6.035156 13.035156 5.621094 19.777344 8.40625 25.472656 L 11.574219 31.953125 C 15.273438 39.515625 11.601562 48.617188 3.691406 51.496094 C 0.28125 52.738281 -0.605469 57.148438 2.0625 59.613281 Z M 11.0625 67.914062 " fill-opacity="1" fill-rule="nonzero"/></g></g></g></g><g mask="url(#79c5fe27de)"><g transform="matrix(1, 0, 0, 1, 43, 22)"><g clip-path="url(#e36407a352)"><g clip-path="url(#b1e8b5fd2a)"><path fill="#d9d9d9" d="M 1.96875 27.011719 C 1.402344 26.21875 1.382812 25.160156 1.914062 24.347656 L 8.726562 13.945312 C 9.210938 13.203125 9.867188 12.589844 10.632812 12.148438 L 28.292969 2.054688 C 26.558594 1.316406 24.863281 0.761719 23.207031 0.375 L 8.042969 11.386719 C 7.597656 11.707031 7.234375 12.128906 6.980469 12.617188 L 1.175781 23.824219 C 0.496094 25.132812 0.707031 26.726562 1.695312 27.816406 L 5.636719 32.160156 Z M 1.96875 27.011719 " fill-opacity="1" fill-rule="nonzero"/></g></g></g></g><path fill="#ff66c4" d="M 44.96875 49.011719 C 44.402344 48.21875 44.382812 47.160156 44.914062 46.347656 L 51.726562 35.945312 C 52.210938 35.203125 52.867188 34.589844 53.632812 34.148438 L 71.292969 24.054688 C 69.558594 23.316406 67.863281 22.761719 66.207031 22.375 L 51.042969 33.386719 C 50.597656 33.707031 50.234375 34.128906 49.980469 34.617188 L 44.175781 45.824219 C 43.496094 47.132812 43.707031 48.726562 44.695312 49.816406 L 48.636719 54.160156 Z M 44.96875 49.011719 " fill-opacity="1" fill-rule="nonzero"/><g mask="url(#882a19c47e)"><g transform="matrix(1, 0, 0, 1, 52, 30)"><g clip-path="url(#de7a0ad5d8)"><g clip-path="url(#72144f606c)"><path fill="#ff66c4" d="M 1.21875 56.996094 C 1.21875 58.152344 1.613281 59.328125 2.457031 60.296875 L 9.0625 67.914062 C 8.511719 67.175781 1.054688 57.003906 5.292969 53.828125 C 5.546875 53.636719 5.84375 53.46875 6.1875 53.332031 C 6.789062 53.09375 7.53125 52.945312 8.4375 52.898438 C 18.804688 52.40625 22.953125 52.429688 21.332031 46.546875 C 20.320312 42.871094 21.605469 41.234375 22.710938 40.523438 C 23.25 40.179688 23.292969 39.402344 22.8125 38.980469 L 20.972656 37.363281 L 23.375 36.746094 C 24.347656 36.496094 24.871094 35.441406 24.472656 34.523438 C 23.984375 33.394531 23.695312 32.035156 24.8125 31.542969 C 25.917969 31.054688 27.886719 30.40625 29.457031 29.917969 C 30.570312 29.570312 30.972656 28.207031 30.226562 27.3125 C 28.25 24.949219 24.9375 20.796875 23.109375 17.492188 C 22.554688 16.492188 22.136719 15.566406 21.933594 14.796875 C 21.0625 11.488281 23 5.597656 23.949219 1.074219 C 23.949219 1.070312 23.949219 1.066406 23.949219 1.066406 C 23.949219 1.066406 23.945312 1.066406 23.945312 1.066406 L 17.023438 9.679688 C 12.832031 14.898438 11.429688 21.828125 13.265625 28.265625 L 14.566406 32.820312 C 16.90625 41.011719 12.394531 49.597656 4.324219 52.320312 C 2.332031 53.152344 1.21875 55.050781 1.21875 56.996094 Z M 1.21875 56.996094 " fill-opacity="1" fill-rule="nonzero"/></g></g></g></g><path fill="#ff66c4" d="M 58.1875 83.332031 C 58.789062 83.09375 59.53125 82.945312 60.4375 82.898438 C 70.804688 82.40625 74.953125 82.429688 73.332031 76.546875 C 72.320312 72.871094 73.605469 71.234375 74.710938 70.523438 C 75.25 70.179688 75.292969 69.402344 74.8125 68.980469 L 72.972656 67.363281 L 75.375 66.746094 C 76.347656 66.496094 76.871094 65.441406 76.472656 64.523438 C 75.984375 63.394531 75.695312 62.035156 76.8125 61.542969 C 77.917969 61.054688 79.886719 60.40625 81.457031 59.917969 C 82.570312 59.570312 82.972656 58.207031 82.226562 57.3125 C 80.25 54.949219 76.9375 50.796875 75.109375 47.492188 C 72.261719 51.261719 70.640625 55.863281 70.546875 60.660156 L 70.449219 65.65625 C 70.316406 72.488281 66.542969 78.730469 60.558594 82.027344 Z M 58.1875 83.332031 " fill-opacity="1" fill-rule="nonzero"/><g mask="url(#bee7240f74)"><g transform="matrix(1, 0, 0, 1, 8, 7)"><g clip-path="url(#95f2d6c66d)"><g clip-path="url(#4679a7076b)"><path fill="#ff66c4" d="M 2.234375 35.867188 L 3.378906 24.59375 C 2.433594 24.355469 1.734375 23.5 1.734375 22.480469 C 1.734375 21.308594 2.65625 20.355469 3.8125 20.300781 L 4.445312 14.042969 C 3.890625 13.785156 3.515625 13.203125 3.574219 12.539062 C 3.632812 11.824219 4.207031 11.242188 4.914062 11.167969 C 5.292969 11.128906 5.644531 11.230469 5.925781 11.421875 C 7.46875 10.382812 10.425781 8.515625 14.300781 6.652344 C 14.597656 6.511719 14.90625 6.367188 15.222656 6.21875 C 15.117188 5.832031 15.105469 5.410156 15.261719 4.960938 C 15.550781 4.121094 16.316406 3.511719 17.203125 3.460938 C 18.058594 3.414062 18.8125 3.855469 19.210938 4.535156 C 24.125 2.648438 30.253906 0.992188 36.714844 0.925781 C 38.851562 0.90625 41.007812 1.117188 43.175781 1.546875 C 43.242188 1.777344 43.304688 2.007812 43.363281 2.238281 C 41.257812 1.800781 39.035156 1.554688 36.722656 1.582031 C 30.46875 1.640625 24.496094 3.207031 19.457031 5.152344 C 19.484375 5.257812 19.5 5.371094 19.507812 5.484375 L 30.65625 6.34375 C 30.835938 5.808594 31.339844 5.421875 31.933594 5.421875 C 32.425781 5.421875 32.851562 5.683594 33.089844 6.078125 L 43.527344 2.910156 C 43.578125 3.121094 43.625 3.332031 43.664062 3.546875 L 33.277344 6.703125 C 33.28125 6.722656 33.28125 6.746094 33.28125 6.769531 C 33.28125 7.375 32.882812 7.886719 32.332031 8.054688 L 32.621094 13.210938 C 33.132812 13.253906 33.59375 13.472656 33.941406 13.808594 L 43.777344 4.136719 C 43.824219 4.398438 43.867188 4.664062 43.902344 4.929688 L 34.347656 14.328125 C 34.523438 14.640625 34.621094 15.003906 34.621094 15.386719 C 34.621094 15.984375 34.382812 16.519531 34 16.914062 L 36.632812 20.234375 C 36.445312 20.347656 36.257812 20.457031 36.0625 20.566406 L 33.476562 17.308594 C 33.167969 17.476562 32.8125 17.574219 32.4375 17.574219 C 32.039062 17.574219 31.667969 17.464844 31.34375 17.277344 L 24.0625 24.441406 C 24.179688 24.574219 24.289062 24.714844 24.394531 24.859375 C 20.695312 26.511719 17.777344 29.039062 15.492188 32.125 C 15.269531 31.882812 15.070312 31.621094 14.890625 31.34375 L 4.382812 37.273438 C 4.472656 37.503906 4.523438 37.753906 4.527344 38.015625 L 11.691406 38.988281 C 11.609375 39.195312 11.523438 39.40625 11.441406 39.613281 L 4.4375 38.664062 C 4.3125 39.101562 4.046875 39.484375 3.695312 39.761719 C 4.558594 41.292969 5.855469 43.617188 7.261719 46.222656 C 7.363281 46.199219 7.464844 46.183594 7.574219 46.183594 C 7.820312 46.183594 8.054688 46.25 8.253906 46.367188 L 9.789062 44.796875 C 9.683594 45.210938 9.578125 45.628906 9.484375 46.042969 C 9.242188 47.082031 9.03125 48.136719 8.84375 49.191406 C 8.78125 49.542969 8.722656 49.898438 8.664062 50.257812 C 8.417969 49.78125 8.164062 49.304688 7.917969 48.832031 C 7.652344 48.902344 7.355469 48.902344 7.042969 48.761719 C 6.585938 48.558594 6.261719 48.121094 6.230469 47.621094 C 6.199219 47.183594 6.382812 46.789062 6.683594 46.523438 C 5.28125 43.925781 3.988281 41.609375 3.128906 40.085938 C 2.8125 40.207031 2.46875 40.261719 2.101562 40.21875 C 1.039062 40.101562 0.199219 39.199219 0.160156 38.128906 C 0.117188 36.921875 1.054688 35.925781 2.234375 35.867188 Z M 5.089844 14.179688 L 4.464844 20.367188 C 4.816406 20.457031 5.136719 20.636719 5.398438 20.875 L 12.105469 15.492188 C 12.027344 15.320312 11.980469 15.128906 11.980469 14.929688 C 11.980469 14.890625 11.984375 14.855469 11.984375 14.820312 L 6.457031 13.28125 C 6.226562 13.808594 5.699219 14.175781 5.089844 14.179688 Z M 15.496094 6.828125 C 11.265625 8.785156 8.042969 10.796875 6.378906 11.90625 C 6.507812 12.121094 6.578125 12.371094 6.585938 12.636719 L 12.195312 14.199219 C 12.4375 13.828125 12.855469 13.582031 13.328125 13.582031 C 13.414062 13.582031 13.5 13.589844 13.582031 13.605469 L 16.183594 7.5 C 15.90625 7.332031 15.671875 7.101562 15.496094 6.828125 Z M 31.972656 13.253906 L 31.683594 8.089844 C 31.132812 7.984375 30.703125 7.546875 30.609375 6.992188 L 19.457031 6.136719 C 19.421875 6.285156 19.371094 6.429688 19.308594 6.566406 L 30.660156 14.117188 C 30.96875 13.683594 31.433594 13.371094 31.972656 13.253906 Z M 19.734375 22.480469 C 21.226562 22.480469 22.582031 23.046875 23.605469 23.972656 L 30.832031 16.867188 C 30.472656 16.476562 30.253906 15.960938 30.253906 15.386719 C 30.253906 15.148438 30.292969 14.917969 30.363281 14.703125 L 18.945312 7.109375 C 18.664062 7.417969 18.300781 7.644531 17.882812 7.753906 L 19.453125 22.488281 C 19.546875 22.484375 19.640625 22.480469 19.734375 22.480469 Z M 18.804688 22.558594 L 17.234375 7.824219 C 17.078125 7.816406 16.929688 7.792969 16.785156 7.757812 L 14.175781 13.882812 C 14.480469 14.128906 14.675781 14.503906 14.675781 14.929688 C 14.675781 15.316406 14.511719 15.664062 14.25 15.910156 L 17.570312 22.902344 C 17.960938 22.746094 18.375 22.628906 18.804688 22.558594 Z M 16.976562 23.183594 L 13.679688 16.226562 C 13.566406 16.257812 13.449219 16.277344 13.328125 16.277344 C 13.023438 16.277344 12.742188 16.171875 12.515625 16 L 5.808594 21.382812 C 5.996094 21.707031 6.105469 22.082031 6.105469 22.480469 C 6.105469 22.628906 6.089844 22.773438 6.0625 22.914062 L 14.445312 25.964844 C 14.957031 24.777344 15.851562 23.800781 16.976562 23.183594 Z M 4.0625 36.703125 L 14.570312 30.777344 C 14.191406 30.011719 13.980469 29.148438 13.980469 28.238281 C 13.980469 27.660156 14.066406 27.105469 14.222656 26.578125 L 5.839844 23.527344 C 5.484375 24.175781 4.808594 24.621094 4.027344 24.660156 L 2.886719 35.933594 C 3.359375 36.054688 3.769531 36.328125 4.0625 36.703125 Z M 4.0625 36.703125 " fill-opacity="1" fill-rule="nonzero"/></g></g></g></g><g fill="#ff66c4" fill-opacity="1"><g transform="translate(93.160026, 57.059415)"><g><path d="M 2.90625 -30.6875 L 11.828125 -30.6875 L 11.828125 0 L 2.90625 0 Z M 13.6875 -6.828125 L 14.046875 -6.828125 C 15.503906 -6.828125 16.535156 -6.894531 17.140625 -7.03125 C 17.753906 -7.164062 18.210938 -7.484375 18.515625 -7.984375 C 18.835938 -8.515625 19.015625 -9.363281 19.046875 -10.53125 C 19.109375 -12.019531 19.140625 -13.625 19.140625 -15.34375 C 19.140625 -17.039062 19.109375 -18.660156 19.046875 -20.203125 C 18.984375 -21.367188 18.796875 -22.21875 18.484375 -22.75 C 18.171875 -23.28125 17.675781 -23.609375 17 -23.734375 C 16.3125 -23.816406 15.328125 -23.859375 14.046875 -23.859375 L 13.6875 -23.859375 L 13.6875 -30.6875 L 14.046875 -30.6875 C 16.429688 -30.6875 18.414062 -30.582031 20 -30.375 C 21.59375 -30.164062 22.910156 -29.835938 23.953125 -29.390625 C 24.960938 -28.953125 25.765625 -28.34375 26.359375 -27.5625 C 26.953125 -26.789062 27.382812 -25.828125 27.65625 -24.671875 C 27.894531 -23.628906 28.050781 -22.398438 28.125 -20.984375 C 28.195312 -19.578125 28.234375 -17.695312 28.234375 -15.34375 C 28.234375 -12.96875 28.195312 -11.078125 28.125 -9.671875 C 28.050781 -8.273438 27.894531 -7.054688 27.65625 -6.015625 C 27.382812 -4.859375 26.953125 -3.894531 26.359375 -3.125 C 25.765625 -2.351562 24.960938 -1.742188 23.953125 -1.296875 C 22.910156 -0.847656 21.59375 -0.519531 20 -0.3125 C 18.414062 -0.101562 16.429688 0 14.046875 0 L 13.6875 0 Z M 13.6875 -6.828125 "/></g></g></g><g fill="#ff66c4" fill-opacity="1"><g transform="translate(127.956229, 57.059415)"><g><path d="M 2.90625 -30.6875 L 11.828125 -30.6875 L 11.828125 0 L 2.90625 0 Z M 13.6875 -30.6875 L 25.03125 -30.6875 L 25.03125 -23.859375 L 13.6875 -23.859375 Z M 13.6875 -18.921875 L 22.921875 -18.921875 L 22.921875 -12.09375 L 13.6875 -12.09375 Z M 13.6875 -6.828125 L 25.03125 -6.828125 L 25.03125 0 L 13.6875 0 Z M 13.6875 -6.828125 "/></g></g></g><g fill="#ff66c4" fill-opacity="1"><g transform="translate(159.897465, 57.059415)"><g><path d="M 8.921875 -1.296875 C 8.535156 -2.484375 8.191406 -3.640625 7.890625 -4.765625 L 6.46875 -9.6875 C 5.988281 -11.289062 5.617188 -12.492188 5.359375 -13.296875 C 5.117188 -14.179688 4.921875 -14.847656 4.765625 -15.296875 L 0.21875 -30.6875 L 9.328125 -30.6875 L 17.671875 0 L 9.328125 0 Z M 15.921875 -13.609375 L 20.4375 -30.6875 L 29.359375 -30.6875 L 24.796875 -15.296875 L 23.15625 -9.6875 C 22.613281 -7.957031 22.125 -6.316406 21.6875 -4.765625 C 21.382812 -3.640625 21.039062 -2.484375 20.65625 -1.296875 L 20.25 0 L 19.625 0 Z M 15.921875 -13.609375 "/></g></g></g><g fill="#ff66c4" fill-opacity="1"><g transform="translate(193.935326, 57.059415)"><g><path d="M 2.90625 -30.6875 L 11.828125 -30.6875 L 11.828125 0 L 2.90625 0 Z M 2.90625 -30.6875 "/></g></g></g><g fill="#ff66c4" fill-opacity="1"><g transform="translate(213.118437, 57.059415)"><g><path d="M 2.90625 -30.6875 L 11.828125 -30.6875 L 11.828125 0 L 2.90625 0 Z M 13.6875 -30.6875 L 24.140625 -30.6875 L 24.140625 -23.859375 L 13.6875 -23.859375 Z M 13.6875 -18.015625 L 22.484375 -18.015625 L 22.484375 -11.203125 L 13.6875 -11.203125 Z M 13.6875 -18.015625 "/></g></g></g><g fill="#ff66c4" fill-opacity="1"><g transform="translate(243.275327, 57.059415)"><g><path d="M 9.640625 -10.125 L 9.234375 -11.015625 L 8.078125 -13.296875 L 6.953125 -15.65625 C 6.835938 -15.863281 6.691406 -16.175781 6.515625 -16.59375 L 4.6875 -20.390625 L -0.21875 -30.6875 L 8.875 -30.6875 L 18.5625 -10.078125 L 18.5625 0 L 9.640625 0 Z M 15.390625 -21.1875 L 19.53125 -30.6875 L 28.453125 -30.6875 L 24.984375 -23.46875 L 23.515625 -20.4375 L 20.703125 -14.59375 L 19.578125 -12.265625 Z M 15.390625 -21.1875 "/></g></g></g><g fill="#00f8f5" fill-opacity="1"><g transform="translate(275.981466, 57.059415)"><g><path d="M 2.859375 -7.265625 L 11.859375 -7.265625 L 11.859375 0 L 2.859375 0 Z M 2.859375 -7.265625 "/></g></g></g><g fill="#ff66c4" fill-opacity="1"><g transform="translate(295.171188, 57.059415)"><g><path d="M 2.90625 -29.359375 L 2.90625 -30.6875 L 11.109375 -30.6875 L 23.953125 -3.390625 L 22.484375 0 L 16.6875 0 Z M 28.109375 -12.890625 L 27.921875 -12.890625 L 24.9375 -5.671875 L 21.09375 -13.875 L 28.109375 -30.6875 L 36.578125 -30.6875 L 36.578125 0 L 28.109375 0 Z M 2.90625 -24.9375 L 11.109375 -7.453125 L 11.109375 0 L 2.90625 0 Z M 2.90625 -24.9375 "/></g></g></g><g fill="#ff66c4" fill-opacity="1"><g transform="translate(339.112207, 57.059415)"><g><path d="M 2.90625 -30.6875 L 11.828125 -30.6875 L 11.828125 0 L 2.90625 0 Z M 13.6875 -30.6875 L 25.03125 -30.6875 L 25.03125 -23.859375 L 13.6875 -23.859375 Z M 13.6875 -18.921875 L 22.921875 -18.921875 L 22.921875 -12.09375 L 13.6875 -12.09375 Z M 13.6875 -6.828125 L 25.03125 -6.828125 L 25.03125 0 L 13.6875 0 Z M 13.6875 -6.828125 "/></g></g></g><g fill="#01f8f5" fill-opacity="1"><g transform="translate(93.160026, 92.46416)"><g><path d="M 18.4375 0 L 18.4375 -13.796875 L 18.328125 -13.796875 L 12.3125 0 L 10.703125 0 L 4.71875 -13.796875 L 4.609375 -13.796875 L 4.609375 0 L 2.546875 0 L 2.546875 -17.546875 L 5.515625 -17.546875 L 11.5 -3.90625 L 11.625 -3.90625 L 17.625 -17.546875 L 20.578125 -17.546875 L 20.578125 0 Z M 18.4375 0 "/></g></g></g><g fill="#01f8f5" fill-opacity="1"><g transform="translate(121.939041, 92.46416)"><g><path d="M 14.453125 0 L 12.640625 -4.671875 L 4.75 -4.671875 L 2.9375 0 L 0.71875 0 L 7.34375 -17.546875 L 10.09375 -17.546875 L 16.734375 0 Z M 8.75 -15.171875 L 8.625 -15.171875 L 5.40625 -6.734375 L 11.953125 -6.734375 Z M 8.75 -15.171875 "/></g></g></g><g fill="#01f8f5" fill-opacity="1"><g transform="translate(145.033994, 92.46416)"><g><path d="M 13.875 0 L 7.90625 -7.90625 L 4.75 -7.90625 L 4.75 0 L 2.546875 0 L 2.546875 -17.546875 L 4.75 -17.546875 L 4.75 -9.9375 L 7.90625 -9.9375 L 13.890625 -17.546875 L 16.34375 -17.546875 L 9.671875 -9.046875 L 16.421875 0 Z M 13.875 0 "/></g></g></g><g fill="#01f8f5" fill-opacity="1"><g transform="translate(167.797593, 92.46416)"><g><path d="M 2.546875 0 L 2.546875 -17.546875 L 4.75 -17.546875 L 4.75 0 Z M 2.546875 0 "/></g></g></g><g fill="#01f8f5" fill-opacity="1"><g transform="translate(180.747908, 92.46416)"><g><path d="M 14.03125 0 L 4.765625 -13.40625 L 4.671875 -13.40625 L 4.671875 0 L 2.546875 0 L 2.546875 -17.546875 L 4.796875 -17.546875 L 13.921875 -4.4375 L 14.03125 -4.4375 L 14.03125 -17.546875 L 16.109375 -17.546875 L 16.109375 0 Z M 14.03125 0 "/></g></g></g><g fill="#01f8f5" fill-opacity="1"><g transform="translate(205.066338, 92.46416)"><g><path d="M 8.921875 -7.5 L 8.921875 -9.515625 L 15 -9.515625 L 15 -0.3125 C 14.164062 -0.15625 13.222656 -0.03125 12.171875 0.0625 C 11.128906 0.15625 10.207031 0.203125 9.40625 0.203125 C 7.269531 0.203125 5.6875 -0.03125 4.65625 -0.5 C 3.625 -0.96875 2.914062 -1.816406 2.53125 -3.046875 C 2.15625 -4.273438 1.96875 -6.179688 1.96875 -8.765625 C 1.96875 -11.335938 2.160156 -13.242188 2.546875 -14.484375 C 2.941406 -15.722656 3.648438 -16.578125 4.671875 -17.046875 C 5.703125 -17.515625 7.28125 -17.75 9.40625 -17.75 C 10.238281 -17.75 11.171875 -17.695312 12.203125 -17.59375 C 13.234375 -17.488281 14.140625 -17.367188 14.921875 -17.234375 L 14.921875 -15.296875 C 12.984375 -15.566406 11.503906 -15.703125 10.484375 -15.703125 C 8.460938 -15.703125 7.054688 -15.59375 6.265625 -15.375 C 5.472656 -15.15625 4.914062 -14.578125 4.59375 -13.640625 C 4.28125 -12.703125 4.125 -11.078125 4.125 -8.765625 C 4.125 -6.628906 4.242188 -5.09375 4.484375 -4.15625 C 4.722656 -3.21875 5.195312 -2.585938 5.90625 -2.265625 C 6.625 -1.941406 7.800781 -1.78125 9.4375 -1.78125 C 9.945312 -1.78125 10.539062 -1.800781 11.21875 -1.84375 C 11.894531 -1.882812 12.445312 -1.929688 12.875 -1.984375 L 12.875 -7.5 Z M 8.921875 -7.5 "/></g></g></g><g fill="#01f8f5" fill-opacity="1"><g transform="translate(227.982871, 92.46416)"><g/></g></g><g fill="#00f8f5" fill-opacity="1"><g transform="translate(239.643492, 92.46416)"><g><path d="M 2.546875 0 L 2.546875 -17.546875 L 4.75 -17.546875 L 4.75 0 Z M 2.546875 0 "/></g></g></g><g fill="#00f8f5" fill-opacity="1"><g transform="translate(252.593803, 92.46416)"><g><path d="M 6.328125 0 L 6.328125 -15.421875 L 0.765625 -15.421875 L 0.765625 -17.546875 L 14.046875 -17.546875 L 14.046875 -15.421875 L 8.515625 -15.421875 L 8.515625 0 Z M 6.328125 0 "/></g></g></g><g fill="#01f8f5" fill-opacity="1"><g transform="translate(273.100095, 92.46416)"><g/></g></g><g fill="#01f8f5" fill-opacity="1"><g transform="translate(284.750469, 92.46416)"><g><path d="M 13.40625 0 L 10.6875 -6.890625 L 4.75 -6.890625 L 4.75 0 L 2.546875 0 L 2.546875 -17.546875 L 10.609375 -17.546875 C 12.003906 -17.546875 13.054688 -17.320312 13.765625 -16.875 C 14.484375 -16.4375 14.953125 -15.84375 15.171875 -15.09375 C 15.390625 -14.34375 15.5 -13.382812 15.5 -12.21875 C 15.5 -11.007812 15.320312 -9.957031 14.96875 -9.0625 C 14.613281 -8.164062 13.882812 -7.554688 12.78125 -7.234375 L 15.765625 0 Z M 9.6875 -8.921875 C 10.78125 -8.921875 11.582031 -9.035156 12.09375 -9.265625 C 12.613281 -9.492188 12.945312 -9.828125 13.09375 -10.265625 C 13.238281 -10.710938 13.3125 -11.363281 13.3125 -12.21875 C 13.3125 -13.082031 13.242188 -13.734375 13.109375 -14.171875 C 12.972656 -14.617188 12.660156 -14.953125 12.171875 -15.171875 C 11.691406 -15.390625 10.925781 -15.5 9.875 -15.5 L 4.75 -15.5 L 4.75 -8.921875 Z M 9.6875 -8.921875 "/></g></g></g><g fill="#01f8f5" fill-opacity="1"><g transform="translate(307.794442, 92.46416)"><g><path d="M 2.546875 0 L 2.546875 -17.546875 L 13.96875 -17.546875 L 13.96875 -15.5 L 4.75 -15.5 L 4.75 -9.875 L 12.75 -9.875 L 12.75 -7.828125 L 4.75 -7.828125 L 4.75 -2.046875 L 13.96875 -2.046875 L 13.96875 0 Z M 2.546875 0 "/></g></g></g><g fill="#01f8f5" fill-opacity="1"><g transform="translate(328.850268, 92.46416)"><g><path d="M 14.453125 0 L 12.640625 -4.671875 L 4.75 -4.671875 L 2.9375 0 L 0.71875 0 L 7.34375 -17.546875 L 10.09375 -17.546875 L 16.734375 0 Z M 8.75 -15.171875 L 8.625 -15.171875 L 5.40625 -6.734375 L 11.953125 -6.734375 Z M 8.75 -15.171875 "/></g></g></g><g fill="#01f8f5" fill-opacity="1"><g transform="translate(351.945223, 92.46416)"><g><path d="M 2.546875 0 L 2.546875 -17.546875 L 4.75 -17.546875 L 4.75 -2.109375 L 12.921875 -2.109375 L 12.921875 0 Z M 2.546875 0 "/></g></g></g></svg>